<?xml version="1.0" encoding="utf-8" standalone="no"?>
<!DOCTYPE svg PUBLIC "-//W3C//DTD SVG 1.1//EN"
  "http://www.w3.org/Graphics/SVG/1.1/DTD/svg11.dtd">
<svg xmlns:xlink="http://www.w3.org/1999/xlink" width="453.384062pt" height="337.15625pt" viewBox="0 0 453.384062 337.15625" xmlns="http://www.w3.org/2000/svg" version="1.1">
 <metadata>
  <rdf:RDF xmlns:dc="http://purl.org/dc/elements/1.1/" xmlns:cc="http://creativecommons.org/ns#" xmlns:rdf="http://www.w3.org/1999/02/22-rdf-syntax-ns#">
   <cc:Work>
    <dc:type rdf:resource="http://purl.org/dc/dcmitype/StillImage"/>
    <dc:date>2026-07-01T03:08:44.513067</dc:date>
    <dc:format>image/svg+xml</dc:format>
    <dc:creator>
     <cc:Agent>
      <dc:title>Matplotlib v3.10.0, https://matplotlib.org/</dc:title>
     </cc:Agent>
    </dc:creator>
   </cc:Work>
  </rdf:RDF>
 </metadata>
 <defs>
  <style type="text/css">*{stroke-linejoin: round; stroke-linecap: butt}</style>
 </defs>
 <g id="figure_1">
  <g id="patch_1">
   <path d="M 0 337.15625 
L 453.384062 337.15625 
L 453.384062 0 
L 0 0 
z
" style="fill: #ffffff"/>
  </g>
  <g id="axes_1">
   <g id="patch_2">
    <path d="M 50.564063 313.278125 
L 446.184062 313.278125 
L 446.184062 22.798125 
L 50.564063 22.798125 
z
" style="fill: #ffffff"/>
   </g>
   <g id="matplotlib.axis_1">
    <g id="xtick_1">
     <g id="line2d_1">
      <defs>
       <path id="m25f73bbd58" d="M 0 0 
L 0 3.5 
" style="stroke: #000000; stroke-width: 0.8"/>
      </defs>
      <g>
       <use xlink:href="#m25f73bbd58" x="68.54679" y="313.278125" style="stroke: #000000; stroke-width: 0.8"/>
      </g>
     </g>
     <g id="text_1">
      <!-- '11 -->
      <g transform="translate(60.810071 327.876562) scale(0.1 -0.1)">
       <defs>
        <path id="DejaVuSans-27" d="M 1147 4666 
L 1147 2931 
L 616 2931 
L 616 4666 
L 1147 4666 
z
" transform="scale(0.015625)"/>
        <path id="DejaVuSans-31" d="M 794 531 
L 1825 531 
L 1825 4091 
L 703 3866 
L 703 4441 
L 1819 4666 
L 2450 4666 
L 2450 531 
L 3481 531 
L 3481 0 
L 794 0 
L 794 531 
z
" transform="scale(0.015625)"/>
       </defs>
       <use xlink:href="#DejaVuSans-27"/>
       <use xlink:href="#DejaVuSans-31" transform="translate(27.490234 0)"/>
       <use xlink:href="#DejaVuSans-31" transform="translate(91.113281 0)"/>
      </g>
     </g>
    </g>
    <g id="xtick_2">
     <g id="line2d_2">
      <g>
       <use xlink:href="#m25f73bbd58" x="92.523759" y="313.278125" style="stroke: #000000; stroke-width: 0.8"/>
      </g>
     </g>
     <g id="text_2">
      <!-- '12 -->
      <g transform="translate(84.787041 327.876562) scale(0.1 -0.1)">
       <defs>
        <path id="DejaVuSans-32" d="M 1228 531 
L 3431 531 
L 3431 0 
L 469 0 
L 469 531 
Q 828 903 1448 1529 
Q 2069 2156 2228 2338 
Q 2531 2678 2651 2914 
Q 2772 3150 2772 3378 
Q 2772 3750 2511 3984 
Q 2250 4219 1831 4219 
Q 1534 4219 1204 4116 
Q 875 4013 500 3803 
L 500 4441 
Q 881 4594 1212 4672 
Q 1544 4750 1819 4750 
Q 2544 4750 2975 4387 
Q 3406 4025 3406 3419 
Q 3406 3131 3298 2873 
Q 3191 2616 2906 2266 
Q 2828 2175 2409 1742 
Q 1991 1309 1228 531 
z
" transform="scale(0.015625)"/>
       </defs>
       <use xlink:href="#DejaVuSans-27"/>
       <use xlink:href="#DejaVuSans-31" transform="translate(27.490234 0)"/>
       <use xlink:href="#DejaVuSans-32" transform="translate(91.113281 0)"/>
      </g>
     </g>
    </g>
    <g id="xtick_3">
     <g id="line2d_3">
      <g>
       <use xlink:href="#m25f73bbd58" x="116.500729" y="313.278125" style="stroke: #000000; stroke-width: 0.8"/>
      </g>
     </g>
     <g id="text_3">
      <!-- '13 -->
      <g transform="translate(108.76401 327.876562) scale(0.1 -0.1)">
       <defs>
        <path id="DejaVuSans-33" d="M 2597 2516 
Q 3050 2419 3304 2112 
Q 3559 1806 3559 1356 
Q 3559 666 3084 287 
Q 2609 -91 1734 -91 
Q 1441 -91 1130 -33 
Q 819 25 488 141 
L 488 750 
Q 750 597 1062 519 
Q 1375 441 1716 441 
Q 2309 441 2620 675 
Q 2931 909 2931 1356 
Q 2931 1769 2642 2001 
Q 2353 2234 1838 2234 
L 1294 2234 
L 1294 2753 
L 1863 2753 
Q 2328 2753 2575 2939 
Q 2822 3125 2822 3475 
Q 2822 3834 2567 4026 
Q 2313 4219 1838 4219 
Q 1578 4219 1281 4162 
Q 984 4106 628 3988 
L 628 4550 
Q 988 4650 1302 4700 
Q 1616 4750 1894 4750 
Q 2613 4750 3031 4423 
Q 3450 4097 3450 3541 
Q 3450 3153 3228 2886 
Q 3006 2619 2597 2516 
z
" transform="scale(0.015625)"/>
       </defs>
       <use xlink:href="#DejaVuSans-27"/>
       <use xlink:href="#DejaVuSans-31" transform="translate(27.490234 0)"/>
       <use xlink:href="#DejaVuSans-33" transform="translate(91.113281 0)"/>
      </g>
     </g>
    </g>
    <g id="xtick_4">
     <g id="line2d_4">
      <g>
       <use xlink:href="#m25f73bbd58" x="140.477699" y="313.278125" style="stroke: #000000; stroke-width: 0.8"/>
      </g>
     </g>
     <g id="text_4">
      <!-- '14 -->
      <g transform="translate(132.74098 327.876562) scale(0.1 -0.1)">
       <defs>
        <path id="DejaVuSans-34" d="M 2419 4116 
L 825 1625 
L 2419 1625 
L 2419 4116 
z
M 2253 4666 
L 3047 4666 
L 3047 1625 
L 3713 1625 
L 3713 1100 
L 3047 1100 
L 3047 0 
L 2419 0 
L 2419 1100 
L 313 1100 
L 313 1709 
L 2253 4666 
z
" transform="scale(0.015625)"/>
       </defs>
       <use xlink:href="#DejaVuSans-27"/>
       <use xlink:href="#DejaVuSans-31" transform="translate(27.490234 0)"/>
       <use xlink:href="#DejaVuSans-34" transform="translate(91.113281 0)"/>
      </g>
     </g>
    </g>
    <g id="xtick_5">
     <g id="line2d_5">
      <g>
       <use xlink:href="#m25f73bbd58" x="164.454669" y="313.278125" style="stroke: #000000; stroke-width: 0.8"/>
      </g>
     </g>
     <g id="text_5">
      <!-- '15 -->
      <g transform="translate(156.71795 327.876562) scale(0.1 -0.1)">
       <defs>
        <path id="DejaVuSans-35" d="M 691 4666 
L 3169 4666 
L 3169 4134 
L 1269 4134 
L 1269 2991 
Q 1406 3038 1543 3061 
Q 1681 3084 1819 3084 
Q 2600 3084 3056 2656 
Q 3513 2228 3513 1497 
Q 3513 744 3044 326 
Q 2575 -91 1722 -91 
Q 1428 -91 1123 -41 
Q 819 9 494 109 
L 494 744 
Q 775 591 1075 516 
Q 1375 441 1709 441 
Q 2250 441 2565 725 
Q 2881 1009 2881 1497 
Q 2881 1984 2565 2268 
Q 2250 2553 1709 2553 
Q 1456 2553 1204 2497 
Q 953 2441 691 2322 
L 691 4666 
z
" transform="scale(0.015625)"/>
       </defs>
       <use xlink:href="#DejaVuSans-27"/>
       <use xlink:href="#DejaVuSans-31" transform="translate(27.490234 0)"/>
       <use xlink:href="#DejaVuSans-35" transform="translate(91.113281 0)"/>
      </g>
     </g>
    </g>
    <g id="xtick_6">
     <g id="line2d_6">
      <g>
       <use xlink:href="#m25f73bbd58" x="188.431638" y="313.278125" style="stroke: #000000; stroke-width: 0.8"/>
      </g>
     </g>
     <g id="text_6">
      <!-- '16 -->
      <g transform="translate(180.69492 327.876562) scale(0.1 -0.1)">
       <defs>
        <path id="DejaVuSans-36" d="M 2113 2584 
Q 1688 2584 1439 2293 
Q 1191 2003 1191 1497 
Q 1191 994 1439 701 
Q 1688 409 2113 409 
Q 2538 409 2786 701 
Q 3034 994 3034 1497 
Q 3034 2003 2786 2293 
Q 2538 2584 2113 2584 
z
M 3366 4563 
L 3366 3988 
Q 3128 4100 2886 4159 
Q 2644 4219 2406 4219 
Q 1781 4219 1451 3797 
Q 1122 3375 1075 2522 
Q 1259 2794 1537 2939 
Q 1816 3084 2150 3084 
Q 2853 3084 3261 2657 
Q 3669 2231 3669 1497 
Q 3669 778 3244 343 
Q 2819 -91 2113 -91 
Q 1303 -91 875 529 
Q 447 1150 447 2328 
Q 447 3434 972 4092 
Q 1497 4750 2381 4750 
Q 2619 4750 2861 4703 
Q 3103 4656 3366 4563 
z
" transform="scale(0.015625)"/>
       </defs>
       <use xlink:href="#DejaVuSans-27"/>
       <use xlink:href="#DejaVuSans-31" transform="translate(27.490234 0)"/>
       <use xlink:href="#DejaVuSans-36" transform="translate(91.113281 0)"/>
      </g>
     </g>
    </g>
    <g id="xtick_7">
     <g id="line2d_7">
      <g>
       <use xlink:href="#m25f73bbd58" x="212.408608" y="313.278125" style="stroke: #000000; stroke-width: 0.8"/>
      </g>
     </g>
     <g id="text_7">
      <!-- '17 -->
      <g transform="translate(204.671889 327.876562) scale(0.1 -0.1)">
       <defs>
        <path id="DejaVuSans-37" d="M 525 4666 
L 3525 4666 
L 3525 4397 
L 1831 0 
L 1172 0 
L 2766 4134 
L 525 4134 
L 525 4666 
z
" transform="scale(0.015625)"/>
       </defs>
       <use xlink:href="#DejaVuSans-27"/>
       <use xlink:href="#DejaVuSans-31" transform="translate(27.490234 0)"/>
       <use xlink:href="#DejaVuSans-37" transform="translate(91.113281 0)"/>
      </g>
     </g>
    </g>
    <g id="xtick_8">
     <g id="line2d_8">
      <g>
       <use xlink:href="#m25f73bbd58" x="236.385578" y="313.278125" style="stroke: #000000; stroke-width: 0.8"/>
      </g>
     </g>
     <g id="text_8">
      <!-- '18 -->
      <g transform="translate(228.648859 327.876562) scale(0.1 -0.1)">
       <defs>
        <path id="DejaVuSans-38" d="M 2034 2216 
Q 1584 2216 1326 1975 
Q 1069 1734 1069 1313 
Q 1069 891 1326 650 
Q 1584 409 2034 409 
Q 2484 409 2743 651 
Q 3003 894 3003 1313 
Q 3003 1734 2745 1975 
Q 2488 2216 2034 2216 
z
M 1403 2484 
Q 997 2584 770 2862 
Q 544 3141 544 3541 
Q 544 4100 942 4425 
Q 1341 4750 2034 4750 
Q 2731 4750 3128 4425 
Q 3525 4100 3525 3541 
Q 3525 3141 3298 2862 
Q 3072 2584 2669 2484 
Q 3125 2378 3379 2068 
Q 3634 1759 3634 1313 
Q 3634 634 3220 271 
Q 2806 -91 2034 -91 
Q 1263 -91 848 271 
Q 434 634 434 1313 
Q 434 1759 690 2068 
Q 947 2378 1403 2484 
z
M 1172 3481 
Q 1172 3119 1398 2916 
Q 1625 2713 2034 2713 
Q 2441 2713 2670 2916 
Q 2900 3119 2900 3481 
Q 2900 3844 2670 4047 
Q 2441 4250 2034 4250 
Q 1625 4250 1398 4047 
Q 1172 3844 1172 3481 
z
" transform="scale(0.015625)"/>
       </defs>
       <use xlink:href="#DejaVuSans-27"/>
       <use xlink:href="#DejaVuSans-31" transform="translate(27.490234 0)"/>
       <use xlink:href="#DejaVuSans-38" transform="translate(91.113281 0)"/>
      </g>
     </g>
    </g>
    <g id="xtick_9">
     <g id="line2d_9">
      <g>
       <use xlink:href="#m25f73bbd58" x="260.362547" y="313.278125" style="stroke: #000000; stroke-width: 0.8"/>
      </g>
     </g>
     <g id="text_9">
      <!-- '19 -->
      <g transform="translate(252.625829 327.876562) scale(0.1 -0.1)">
       <defs>
        <path id="DejaVuSans-39" d="M 703 97 
L 703 672 
Q 941 559 1184 500 
Q 1428 441 1663 441 
Q 2288 441 2617 861 
Q 2947 1281 2994 2138 
Q 2813 1869 2534 1725 
Q 2256 1581 1919 1581 
Q 1219 1581 811 2004 
Q 403 2428 403 3163 
Q 403 3881 828 4315 
Q 1253 4750 1959 4750 
Q 2769 4750 3195 4129 
Q 3622 3509 3622 2328 
Q 3622 1225 3098 567 
Q 2575 -91 1691 -91 
Q 1453 -91 1209 -44 
Q 966 3 703 97 
z
M 1959 2075 
Q 2384 2075 2632 2365 
Q 2881 2656 2881 3163 
Q 2881 3666 2632 3958 
Q 2384 4250 1959 4250 
Q 1534 4250 1286 3958 
Q 1038 3666 1038 3163 
Q 1038 2656 1286 2365 
Q 1534 2075 1959 2075 
z
" transform="scale(0.015625)"/>
       </defs>
       <use xlink:href="#DejaVuSans-27"/>
       <use xlink:href="#DejaVuSans-31" transform="translate(27.490234 0)"/>
       <use xlink:href="#DejaVuSans-39" transform="translate(91.113281 0)"/>
      </g>
     </g>
    </g>
    <g id="xtick_10">
     <g id="line2d_10">
      <g>
       <use xlink:href="#m25f73bbd58" x="284.339517" y="313.278125" style="stroke: #000000; stroke-width: 0.8"/>
      </g>
     </g>
     <g id="text_10">
      <!-- '20 -->
      <g transform="translate(276.602798 327.876562) scale(0.1 -0.1)">
       <defs>
        <path id="DejaVuSans-30" d="M 2034 4250 
Q 1547 4250 1301 3770 
Q 1056 3291 1056 2328 
Q 1056 1369 1301 889 
Q 1547 409 2034 409 
Q 2525 409 2770 889 
Q 3016 1369 3016 2328 
Q 3016 3291 2770 3770 
Q 2525 4250 2034 4250 
z
M 2034 4750 
Q 2819 4750 3233 4129 
Q 3647 3509 3647 2328 
Q 3647 1150 3233 529 
Q 2819 -91 2034 -91 
Q 1250 -91 836 529 
Q 422 1150 422 2328 
Q 422 3509 836 4129 
Q 1250 4750 2034 4750 
z
" transform="scale(0.015625)"/>
       </defs>
       <use xlink:href="#DejaVuSans-27"/>
       <use xlink:href="#DejaVuSans-32" transform="translate(27.490234 0)"/>
       <use xlink:href="#DejaVuSans-30" transform="translate(91.113281 0)"/>
      </g>
     </g>
    </g>
    <g id="xtick_11">
     <g id="line2d_11">
      <g>
       <use xlink:href="#m25f73bbd58" x="308.316487" y="313.278125" style="stroke: #000000; stroke-width: 0.8"/>
      </g>
     </g>
     <g id="text_11">
      <!-- '21 -->
      <g transform="translate(300.579768 327.876562) scale(0.1 -0.1)">
       <use xlink:href="#DejaVuSans-27"/>
       <use xlink:href="#DejaVuSans-32" transform="translate(27.490234 0)"/>
       <use xlink:href="#DejaVuSans-31" transform="translate(91.113281 0)"/>
      </g>
     </g>
    </g>
    <g id="xtick_12">
     <g id="line2d_12">
      <g>
       <use xlink:href="#m25f73bbd58" x="332.293456" y="313.278125" style="stroke: #000000; stroke-width: 0.8"/>
      </g>
     </g>
     <g id="text_12">
      <!-- '22 -->
      <g transform="translate(324.556738 327.876562) scale(0.1 -0.1)">
       <use xlink:href="#DejaVuSans-27"/>
       <use xlink:href="#DejaVuSans-32" transform="translate(27.490234 0)"/>
       <use xlink:href="#DejaVuSans-32" transform="translate(91.113281 0)"/>
      </g>
     </g>
    </g>
    <g id="xtick_13">
     <g id="line2d_13">
      <g>
       <use xlink:href="#m25f73bbd58" x="356.270426" y="313.278125" style="stroke: #000000; stroke-width: 0.8"/>
      </g>
     </g>
     <g id="text_13">
      <!-- '23 -->
      <g transform="translate(348.533707 327.876562) scale(0.1 -0.1)">
       <use xlink:href="#DejaVuSans-27"/>
       <use xlink:href="#DejaVuSans-32" transform="translate(27.490234 0)"/>
       <use xlink:href="#DejaVuSans-33" transform="translate(91.113281 0)"/>
      </g>
     </g>
    </g>
    <g id="xtick_14">
     <g id="line2d_14">
      <g>
       <use xlink:href="#m25f73bbd58" x="380.247396" y="313.278125" style="stroke: #000000; stroke-width: 0.8"/>
      </g>
     </g>
     <g id="text_14">
      <!-- '24 -->
      <g transform="translate(372.510677 327.876562) scale(0.1 -0.1)">
       <use xlink:href="#DejaVuSans-27"/>
       <use xlink:href="#DejaVuSans-32" transform="translate(27.490234 0)"/>
       <use xlink:href="#DejaVuSans-34" transform="translate(91.113281 0)"/>
      </g>
     </g>
    </g>
    <g id="xtick_15">
     <g id="line2d_15">
      <g>
       <use xlink:href="#m25f73bbd58" x="404.224366" y="313.278125" style="stroke: #000000; stroke-width: 0.8"/>
      </g>
     </g>
     <g id="text_15">
      <!-- '25 -->
      <g transform="translate(396.487647 327.876562) scale(0.1 -0.1)">
       <use xlink:href="#DejaVuSans-27"/>
       <use xlink:href="#DejaVuSans-32" transform="translate(27.490234 0)"/>
       <use xlink:href="#DejaVuSans-35" transform="translate(91.113281 0)"/>
      </g>
     </g>
    </g>
    <g id="xtick_16">
     <g id="line2d_16">
      <g>
       <use xlink:href="#m25f73bbd58" x="428.201335" y="313.278125" style="stroke: #000000; stroke-width: 0.8"/>
      </g>
     </g>
     <g id="text_16">
      <!-- '26 -->
      <g transform="translate(420.464616 327.876562) scale(0.1 -0.1)">
       <use xlink:href="#DejaVuSans-27"/>
       <use xlink:href="#DejaVuSans-32" transform="translate(27.490234 0)"/>
       <use xlink:href="#DejaVuSans-36" transform="translate(91.113281 0)"/>
      </g>
     </g>
    </g>
   </g>
   <g id="matplotlib.axis_2">
    <g id="ytick_1">
     <g id="line2d_17">
      <path d="M 50.564063 307.023771 
L 446.184062 307.023771 
" clip-path="url(#p51b57f6c9c)" style="fill: none; stroke-dasharray: 2.96,1.28; stroke-dashoffset: 0; stroke: #b0b0b0; stroke-opacity: 0.4; stroke-width: 0.8"/>
     </g>
     <g id="line2d_18">
      <defs>
       <path id="m41573fd3ce" d="M 0 0 
L -3.5 0 
" style="stroke: #000000; stroke-width: 0.8"/>
      </defs>
      <g>
       <use xlink:href="#m41573fd3ce" x="50.564063" y="307.023771" style="stroke: #000000; stroke-width: 0.8"/>
      </g>
     </g>
     <g id="text_17">
      <!-- 2.5 -->
      <g transform="translate(27.660938 310.82299) scale(0.1 -0.1)">
       <defs>
        <path id="DejaVuSans-2e" d="M 684 794 
L 1344 794 
L 1344 0 
L 684 0 
L 684 794 
z
" transform="scale(0.015625)"/>
       </defs>
       <use xlink:href="#DejaVuSans-32"/>
       <use xlink:href="#DejaVuSans-2e" transform="translate(63.623047 0)"/>
       <use xlink:href="#DejaVuSans-35" transform="translate(95.410156 0)"/>
      </g>
     </g>
    </g>
    <g id="ytick_2">
     <g id="line2d_19">
      <path d="M 50.564063 272.277359 
L 446.184062 272.277359 
" clip-path="url(#p51b57f6c9c)" style="fill: none; stroke-dasharray: 2.96,1.28; stroke-dashoffset: 0; stroke: #b0b0b0; stroke-opacity: 0.4; stroke-width: 0.8"/>
     </g>
     <g id="line2d_20">
      <g>
       <use xlink:href="#m41573fd3ce" x="50.564063" y="272.277359" style="stroke: #000000; stroke-width: 0.8"/>
      </g>
     </g>
     <g id="text_18">
      <!-- 5.0 -->
      <g transform="translate(27.660938 276.076578) scale(0.1 -0.1)">
       <use xlink:href="#DejaVuSans-35"/>
       <use xlink:href="#DejaVuSans-2e" transform="translate(63.623047 0)"/>
       <use xlink:href="#DejaVuSans-30" transform="translate(95.410156 0)"/>
      </g>
     </g>
    </g>
    <g id="ytick_3">
     <g id="line2d_21">
      <path d="M 50.564063 237.530948 
L 446.184062 237.530948 
" clip-path="url(#p51b57f6c9c)" style="fill: none; stroke-dasharray: 2.96,1.28; stroke-dashoffset: 0; stroke: #b0b0b0; stroke-opacity: 0.4; stroke-width: 0.8"/>
     </g>
     <g id="line2d_22">
      <g>
       <use xlink:href="#m41573fd3ce" x="50.564063" y="237.530948" style="stroke: #000000; stroke-width: 0.8"/>
      </g>
     </g>
     <g id="text_19">
      <!-- 7.5 -->
      <g transform="translate(27.660938 241.330167) scale(0.1 -0.1)">
       <use xlink:href="#DejaVuSans-37"/>
       <use xlink:href="#DejaVuSans-2e" transform="translate(63.623047 0)"/>
       <use xlink:href="#DejaVuSans-35" transform="translate(95.410156 0)"/>
      </g>
     </g>
    </g>
    <g id="ytick_4">
     <g id="line2d_23">
      <path d="M 50.564063 202.784536 
L 446.184062 202.784536 
" clip-path="url(#p51b57f6c9c)" style="fill: none; stroke-dasharray: 2.96,1.28; stroke-dashoffset: 0; stroke: #b0b0b0; stroke-opacity: 0.4; stroke-width: 0.8"/>
     </g>
     <g id="line2d_24">
      <g>
       <use xlink:href="#m41573fd3ce" x="50.564063" y="202.784536" style="stroke: #000000; stroke-width: 0.8"/>
      </g>
     </g>
     <g id="text_20">
      <!-- 10.0 -->
      <g transform="translate(21.298438 206.583755) scale(0.1 -0.1)">
       <use xlink:href="#DejaVuSans-31"/>
       <use xlink:href="#DejaVuSans-30" transform="translate(63.623047 0)"/>
       <use xlink:href="#DejaVuSans-2e" transform="translate(127.246094 0)"/>
       <use xlink:href="#DejaVuSans-30" transform="translate(159.033203 0)"/>
      </g>
     </g>
    </g>
    <g id="ytick_5">
     <g id="line2d_25">
      <path d="M 50.564063 168.038125 
L 446.184062 168.038125 
" clip-path="url(#p51b57f6c9c)" style="fill: none; stroke-dasharray: 2.96,1.28; stroke-dashoffset: 0; stroke: #b0b0b0; stroke-opacity: 0.4; stroke-width: 0.8"/>
     </g>
     <g id="line2d_26">
      <g>
       <use xlink:href="#m41573fd3ce" x="50.564063" y="168.038125" style="stroke: #000000; stroke-width: 0.8"/>
      </g>
     </g>
     <g id="text_21">
      <!-- 12.5 -->
      <g transform="translate(21.298438 171.837344) scale(0.1 -0.1)">
       <use xlink:href="#DejaVuSans-31"/>
       <use xlink:href="#DejaVuSans-32" transform="translate(63.623047 0)"/>
       <use xlink:href="#DejaVuSans-2e" transform="translate(127.246094 0)"/>
       <use xlink:href="#DejaVuSans-35" transform="translate(159.033203 0)"/>
      </g>
     </g>
    </g>
    <g id="ytick_6">
     <g id="line2d_27">
      <path d="M 50.564063 133.291714 
L 446.184062 133.291714 
" clip-path="url(#p51b57f6c9c)" style="fill: none; stroke-dasharray: 2.96,1.28; stroke-dashoffset: 0; stroke: #b0b0b0; stroke-opacity: 0.4; stroke-width: 0.8"/>
     </g>
     <g id="line2d_28">
      <g>
       <use xlink:href="#m41573fd3ce" x="50.564063" y="133.291714" style="stroke: #000000; stroke-width: 0.8"/>
      </g>
     </g>
     <g id="text_22">
      <!-- 15.0 -->
      <g transform="translate(21.298438 137.090932) scale(0.1 -0.1)">
       <use xlink:href="#DejaVuSans-31"/>
       <use xlink:href="#DejaVuSans-35" transform="translate(63.623047 0)"/>
       <use xlink:href="#DejaVuSans-2e" transform="translate(127.246094 0)"/>
       <use xlink:href="#DejaVuSans-30" transform="translate(159.033203 0)"/>
      </g>
     </g>
    </g>
    <g id="ytick_7">
     <g id="line2d_29">
      <path d="M 50.564063 98.545302 
L 446.184062 98.545302 
" clip-path="url(#p51b57f6c9c)" style="fill: none; stroke-dasharray: 2.96,1.28; stroke-dashoffset: 0; stroke: #b0b0b0; stroke-opacity: 0.4; stroke-width: 0.8"/>
     </g>
     <g id="line2d_30">
      <g>
       <use xlink:href="#m41573fd3ce" x="50.564063" y="98.545302" style="stroke: #000000; stroke-width: 0.8"/>
      </g>
     </g>
     <g id="text_23">
      <!-- 17.5 -->
      <g transform="translate(21.298438 102.344521) scale(0.1 -0.1)">
       <use xlink:href="#DejaVuSans-31"/>
       <use xlink:href="#DejaVuSans-37" transform="translate(63.623047 0)"/>
       <use xlink:href="#DejaVuSans-2e" transform="translate(127.246094 0)"/>
       <use xlink:href="#DejaVuSans-35" transform="translate(159.033203 0)"/>
      </g>
     </g>
    </g>
    <g id="ytick_8">
     <g id="line2d_31">
      <path d="M 50.564063 63.798891 
L 446.184062 63.798891 
" clip-path="url(#p51b57f6c9c)" style="fill: none; stroke-dasharray: 2.96,1.28; stroke-dashoffset: 0; stroke: #b0b0b0; stroke-opacity: 0.4; stroke-width: 0.8"/>
     </g>
     <g id="line2d_32">
      <g>
       <use xlink:href="#m41573fd3ce" x="50.564063" y="63.798891" style="stroke: #000000; stroke-width: 0.8"/>
      </g>
     </g>
     <g id="text_24">
      <!-- 20.0 -->
      <g transform="translate(21.298438 67.598109) scale(0.1 -0.1)">
       <use xlink:href="#DejaVuSans-32"/>
       <use xlink:href="#DejaVuSans-30" transform="translate(63.623047 0)"/>
       <use xlink:href="#DejaVuSans-2e" transform="translate(127.246094 0)"/>
       <use xlink:href="#DejaVuSans-30" transform="translate(159.033203 0)"/>
      </g>
     </g>
    </g>
    <g id="ytick_9">
     <g id="line2d_33">
      <path d="M 50.564063 29.052479 
L 446.184062 29.052479 
" clip-path="url(#p51b57f6c9c)" style="fill: none; stroke-dasharray: 2.96,1.28; stroke-dashoffset: 0; stroke: #b0b0b0; stroke-opacity: 0.4; stroke-width: 0.8"/>
     </g>
     <g id="line2d_34">
      <g>
       <use xlink:href="#m41573fd3ce" x="50.564063" y="29.052479" style="stroke: #000000; stroke-width: 0.8"/>
      </g>
     </g>
     <g id="text_25">
      <!-- 22.5 -->
      <g transform="translate(21.298438 32.851698) scale(0.1 -0.1)">
       <use xlink:href="#DejaVuSans-32"/>
       <use xlink:href="#DejaVuSans-32" transform="translate(63.623047 0)"/>
       <use xlink:href="#DejaVuSans-2e" transform="translate(127.246094 0)"/>
       <use xlink:href="#DejaVuSans-35" transform="translate(159.033203 0)"/>
      </g>
     </g>
    </g>
    <g id="text_26">
     <!-- Αριθμός αποφάσεων -->
     <g transform="translate(15.198438 218.959219) rotate(-90) scale(0.1 -0.1)">
      <defs>
       <path id="DejaVuSans-391" d="M 2188 4044 
L 1331 1722 
L 3047 1722 
L 2188 4044 
z
M 1831 4666 
L 2547 4666 
L 4325 0 
L 3669 0 
L 3244 1197 
L 1141 1197 
L 716 0 
L 50 0 
L 1831 4666 
z
" transform="scale(0.015625)"/>
       <path id="DejaVuSans-3c1" d="M 863 2875 
Q 1053 3194 1525 3475 
Q 1709 3584 2278 3584 
Q 2916 3584 3314 3078 
Q 3713 2572 3713 1747 
Q 3713 922 3314 415 
Q 2916 -91 2278 -91 
Q 1894 -91 1617 61 
Q 1341 213 1159 525 
L 1159 -1331 
L 581 -1331 
L 581 1716 
Q 581 2438 863 2875 
z
M 3116 1747 
Q 3116 2381 2855 2742 
Q 2594 3103 2138 3103 
Q 1681 3103 1420 2742 
Q 1159 2381 1159 1747 
Q 1159 1113 1420 752 
Q 1681 391 2138 391 
Q 2594 391 2855 752 
Q 3116 1113 3116 1747 
z
" transform="scale(0.015625)"/>
       <path id="DejaVuSans-3b9" d="M 1109 3500 
L 1109 1234 
Q 1109 781 1216 638 
Q 1328 488 1666 488 
L 1944 488 
L 1944 0 
L 1597 0 
Q 1034 0 778 300 
Q 522 606 522 1269 
L 519 3500 
L 1109 3500 
z
" transform="scale(0.015625)"/>
       <path id="DejaVuSans-3b8" d="M 2953 2219 
L 963 2219 
Q 1009 1284 1225 888 
Q 1494 400 1959 400 
Q 2428 400 2688 891 
Q 2916 1322 2953 2219 
z
M 2944 2750 
Q 2856 3638 2688 3950 
Q 2419 4444 1959 4444 
Q 1481 4444 1228 3956 
Q 1028 3563 969 2750 
L 2944 2750 
z
M 1959 4913 
Q 2709 4913 3138 4250 
Q 3566 3591 3566 2422 
Q 3566 1256 3138 594 
Q 2709 -72 1959 -72 
Q 1206 -72 781 594 
Q 353 1256 353 2422 
Q 353 3591 781 4250 
Q 1206 4913 1959 4913 
z
" transform="scale(0.015625)"/>
       <path id="DejaVuSans-3bc" d="M 544 -1331 
L 544 3500 
L 1119 3500 
L 1119 1325 
Q 1119 872 1334 640 
Q 1550 409 1972 409 
Q 2434 409 2667 671 
Q 2900 934 2900 1459 
L 2900 3500 
L 3475 3500 
L 3475 806 
Q 3475 619 3529 530 
Q 3584 441 3700 441 
Q 3728 441 3778 458 
Q 3828 475 3916 513 
L 3916 50 
Q 3788 -22 3673 -56 
Q 3559 -91 3450 -91 
Q 3234 -91 3106 31 
Q 2978 153 2931 403 
Q 2775 156 2548 32 
Q 2322 -91 2016 -91 
Q 1697 -91 1473 31 
Q 1250 153 1119 397 
L 1119 -1331 
L 544 -1331 
z
" transform="scale(0.015625)"/>
       <path id="DejaVuSans-3cc" d="M 2426 5119 
L 3048 5119 
L 2030 3944 
L 1551 3944 
L 2426 5119 
z
M 1959 3097 
Q 1497 3097 1228 2736 
Q 959 2375 959 1747 
Q 959 1119 1226 758 
Q 1494 397 1959 397 
Q 2419 397 2687 759 
Q 2956 1122 2956 1747 
Q 2956 2369 2687 2733 
Q 2419 3097 1959 3097 
z
M 1959 3584 
Q 2709 3584 3137 3096 
Q 3566 2609 3566 1747 
Q 3566 888 3137 398 
Q 2709 -91 1959 -91 
Q 1206 -91 779 398 
Q 353 888 353 1747 
Q 353 2609 779 3096 
Q 1206 3584 1959 3584 
z
" transform="scale(0.015625)"/>
       <path id="DejaVuSans-3c2" d="M 2125 -91 
Q 1284 -91 818 406 
Q 353 903 353 1747 
Q 353 2603 823 3093 
Q 1294 3584 2113 3584 
Q 2378 3584 2631 3529 
Q 2884 3475 3122 3366 
L 3122 2828 
Q 2878 2963 2633 3030 
Q 2388 3097 2138 3097 
Q 1578 3097 1268 2742 
Q 959 2388 959 1747 
Q 959 1106 1268 751 
Q 1578 397 2125 397 
Q 2534 397 2784 159 
Q 3047 -88 3047 -463 
Q 3047 -822 2816 -1072 
Q 2566 -1344 2056 -1344 
Q 2056 -1109 2056 -872 
Q 2272 -888 2403 -750 
Q 2503 -641 2503 -525 
Q 2503 -359 2403 -222 
Q 2306 -91 2125 -91 
z
" transform="scale(0.015625)"/>
       <path id="DejaVuSans-20" transform="scale(0.015625)"/>
       <path id="DejaVuSans-3b1" d="M 2644 1628 
L 2506 2350 
Q 2366 3091 1809 3091 
Q 1391 3091 1200 2747 
Q 959 2316 959 1747 
Q 959 1059 1194 731 
Q 1431 397 1809 397 
Q 2228 397 2453 1063 
L 2644 1628 
z
M 2966 2584 
L 3275 3500 
L 3788 3500 
L 3147 1603 
L 3272 919 
Q 3300 766 3409 638 
Q 3538 488 3638 488 
L 3913 488 
L 3913 0 
L 3569 0 
Q 3275 0 3013 263 
Q 2884 394 2831 669 
Q 2688 322 2394 50 
Q 2256 -78 1809 -78 
Q 1075 -78 719 397 
Q 353 888 353 1747 
Q 353 2666 750 3097 
Q 1191 3578 1809 3578 
Q 2781 3578 2966 2584 
z
" transform="scale(0.015625)"/>
       <path id="DejaVuSans-3c0" d="M 231 3500 
L 3584 3500 
L 3584 2925 
L 3144 2925 
L 3144 775 
Q 3144 550 3220 451 
Q 3297 353 3469 353 
Q 3516 353 3584 361 
Q 3653 369 3675 372 
L 3675 -44 
Q 3566 -84 3450 -103 
Q 3334 -122 3219 -122 
Q 2844 -122 2700 83 
Q 2556 288 2556 838 
L 2556 2925 
L 1266 2925 
L 1266 0 
L 678 0 
L 678 2925 
L 231 2925 
L 231 3500 
z
" transform="scale(0.015625)"/>
       <path id="DejaVuSans-3bf" d="M 1959 3097 
Q 1497 3097 1228 2736 
Q 959 2375 959 1747 
Q 959 1119 1226 758 
Q 1494 397 1959 397 
Q 2419 397 2687 759 
Q 2956 1122 2956 1747 
Q 2956 2369 2687 2733 
Q 2419 3097 1959 3097 
z
M 1959 3584 
Q 2709 3584 3137 3096 
Q 3566 2609 3566 1747 
Q 3566 888 3137 398 
Q 2709 -91 1959 -91 
Q 1206 -91 779 398 
Q 353 888 353 1747 
Q 353 2609 779 3096 
Q 1206 3584 1959 3584 
z
" transform="scale(0.015625)"/>
       <path id="DejaVuSans-3c6" d="M 2591 3034 
Q 2388 3034 2388 2581 
L 2388 438 
Q 2684 438 2981 763 
Q 3247 1053 3247 1750 
Q 3247 2400 2978 2750 
Q 2759 3034 2591 3034 
z
M 2591 3525 
Q 3028 3525 3425 3113 
Q 3853 2672 3853 1750 
Q 3853 903 3425 400 
Q 3022 -75 2388 -75 
L 2388 -1331 
L 1816 -1331 
L 1816 -78 
Q 1194 -78 775 400 
Q 350 888 350 1747 
Q 350 2641 775 3097 
Q 1094 3438 1613 3525 
L 1613 3016 
Q 1406 2944 1225 2700 
Q 956 2341 956 1747 
Q 956 1116 1225 756 
Q 1466 434 1816 434 
L 1816 2581 
Q 1816 3525 2591 3525 
z
" transform="scale(0.015625)"/>
       <path id="DejaVuSans-3ac" d="M 2644 1628 
L 2506 2350 
Q 2366 3091 1809 3091 
Q 1391 3091 1200 2747 
Q 959 2316 959 1747 
Q 959 1059 1194 731 
Q 1431 397 1809 397 
Q 2228 397 2453 1063 
L 2644 1628 
z
M 2966 2584 
L 3275 3500 
L 3788 3500 
L 3147 1603 
L 3272 919 
Q 3300 766 3409 638 
Q 3538 488 3638 488 
L 3913 488 
L 3913 0 
L 3569 0 
Q 3275 0 3013 263 
Q 2884 394 2831 669 
Q 2688 322 2394 50 
Q 2256 -78 1809 -78 
Q 1075 -78 719 397 
Q 353 888 353 1747 
Q 353 2666 750 3097 
Q 1191 3578 1809 3578 
Q 2781 3578 2966 2584 
z
M 2378 5119 
L 3000 5119 
L 1982 3944 
L 1503 3944 
L 2378 5119 
z
" transform="scale(0.015625)"/>
       <path id="DejaVuSans-3c3" d="M 1959 3044 
Q 1484 3044 1228 2700 
Q 959 2341 959 1747 
Q 959 1119 1226 758 
Q 1494 397 1959 397 
Q 2419 397 2687 759 
Q 2956 1122 2956 1747 
Q 2956 2319 2688 2700 
Q 2441 3044 1959 3044 
z
M 1959 3500 
L 3869 3500 
L 3869 2925 
L 3225 2925 
Q 3566 2438 3566 1747 
Q 3566 888 3138 400 
Q 2709 -91 1959 -91 
Q 1206 -91 781 400 
Q 353 888 353 1747 
Q 353 2613 781 3097 
Q 1134 3500 1959 3500 
z
" transform="scale(0.015625)"/>
       <path id="DejaVuSans-3b5" d="M 1234 1888 
Q 884 1963 697 2166 
Q 509 2366 509 2656 
Q 509 3097 866 3344 
Q 1219 3588 1831 3588 
Q 2069 3588 2334 3550 
Q 2600 3513 2906 3438 
L 2906 2916 
Q 2603 3006 2353 3047 
Q 2100 3088 1878 3088 
Q 1506 3088 1291 2944 
Q 1072 2800 1072 2600 
Q 1072 2381 1284 2241 
Q 1494 2103 1856 2103 
L 2341 2103 
L 2341 1628 
L 1878 1628 
Q 1450 1628 1225 1469 
Q 981 1294 981 1019 
Q 981 738 1244 563 
Q 1509 388 1981 388 
Q 2272 388 2538 444 
Q 2803 503 3025 619 
L 3025 84 
Q 2744 -3 2481 -47 
Q 2216 -91 1966 -91 
Q 1222 -91 819 194 
Q 416 478 416 1019 
Q 416 1356 631 1584 
Q 847 1813 1234 1888 
z
" transform="scale(0.015625)"/>
       <path id="DejaVuSans-3c9" d="M 1719 -91 
Q 422 -91 422 1766 
Q 422 2500 906 3500 
L 1525 3500 
Q 1078 2500 1078 1750 
Q 1078 397 1772 397 
Q 2406 397 2406 2078 
L 2938 2078 
Q 2938 397 3572 397 
Q 4266 397 4266 1750 
Q 4266 2500 3819 3500 
L 4438 3500 
Q 4922 2500 4922 1766 
Q 4922 -91 3625 -91 
Q 2775 -91 2672 844 
Q 2544 -91 1719 -91 
z
" transform="scale(0.015625)"/>
       <path id="DejaVuSans-3bd" d="M 1300 0 
L 231 3500 
L 850 3500 
L 1753 563 
Q 2128 950 2441 1488 
Q 2678 1891 2691 2241 
Q 2697 2406 2622 2719 
Q 2534 3091 2203 3500 
L 2784 3500 
L 2784 3500 
Q 3000 3222 3144 2834 
Q 3275 2478 3275 2234 
Q 3275 1622 2850 1075 
Q 2297 363 1913 0 
L 1300 0 
z
" transform="scale(0.015625)"/>
      </defs>
      <use xlink:href="#DejaVuSans-391"/>
      <use xlink:href="#DejaVuSans-3c1" transform="translate(68.408203 0)"/>
      <use xlink:href="#DejaVuSans-3b9" transform="translate(131.884766 0)"/>
      <use xlink:href="#DejaVuSans-3b8" transform="translate(165.722656 0)"/>
      <use xlink:href="#DejaVuSans-3bc" transform="translate(226.904297 0)"/>
      <use xlink:href="#DejaVuSans-3cc" transform="translate(290.527344 0)"/>
      <use xlink:href="#DejaVuSans-3c2" transform="translate(351.708984 0)"/>
      <use xlink:href="#DejaVuSans-20" transform="translate(410.400391 0)"/>
      <use xlink:href="#DejaVuSans-3b1" transform="translate(442.1875 0)"/>
      <use xlink:href="#DejaVuSans-3c0" transform="translate(508.105469 0)"/>
      <use xlink:href="#DejaVuSans-3bf" transform="translate(568.310547 0)"/>
      <use xlink:href="#DejaVuSans-3c6" transform="translate(629.492188 0)"/>
      <use xlink:href="#DejaVuSans-3ac" transform="translate(695.458984 0)"/>
      <use xlink:href="#DejaVuSans-3c3" transform="translate(761.376953 0)"/>
      <use xlink:href="#DejaVuSans-3b5" transform="translate(824.755859 0)"/>
      <use xlink:href="#DejaVuSans-3c9" transform="translate(878.808594 0)"/>
      <use xlink:href="#DejaVuSans-3bd" transform="translate(962.548828 0)"/>
     </g>
    </g>
   </g>
   <g id="line2d_35">
    <path d="M 68.54679 230.581666 
L 92.523759 202.784536 
L 116.500729 202.784536 
L 140.477699 105.494584 
L 164.454669 147.190278 
L 188.431638 91.59602 
L 212.408608 63.798891 
L 236.385578 63.798891 
L 260.362547 49.900326 
L 284.339517 77.697455 
L 308.316487 63.798891 
L 332.293456 63.798891 
L 356.270426 63.798891 
L 380.247396 63.798891 
L 404.224366 63.798891 
L 428.201335 63.798891 
" clip-path="url(#p51b57f6c9c)" style="fill: none; stroke: #70dee6; stroke-width: 1.5; stroke-linecap: square"/>
    <defs>
     <path id="m4b6b1cb738" d="M 0 3 
C 0.795609 3 1.55874 2.683901 2.12132 2.12132 
C 2.683901 1.55874 3 0.795609 3 0 
C 3 -0.795609 2.683901 -1.55874 2.12132 -2.12132 
C 1.55874 -2.683901 0.795609 -3 0 -3 
C -0.795609 -3 -1.55874 -2.683901 -2.12132 -2.12132 
C -2.683901 -1.55874 -3 -0.795609 -3 0 
C -3 0.795609 -2.683901 1.55874 -2.12132 2.12132 
C -1.55874 2.683901 -0.795609 3 0 3 
z
" style="stroke: #70dee6"/>
    </defs>
    <g clip-path="url(#p51b57f6c9c)">
     <use xlink:href="#m4b6b1cb738" x="68.54679" y="230.581666" style="fill: #70dee6; stroke: #70dee6"/>
     <use xlink:href="#m4b6b1cb738" x="92.523759" y="202.784536" style="fill: #70dee6; stroke: #70dee6"/>
     <use xlink:href="#m4b6b1cb738" x="116.500729" y="202.784536" style="fill: #70dee6; stroke: #70dee6"/>
     <use xlink:href="#m4b6b1cb738" x="140.477699" y="105.494584" style="fill: #70dee6; stroke: #70dee6"/>
     <use xlink:href="#m4b6b1cb738" x="164.454669" y="147.190278" style="fill: #70dee6; stroke: #70dee6"/>
     <use xlink:href="#m4b6b1cb738" x="188.431638" y="91.59602" style="fill: #70dee6; stroke: #70dee6"/>
     <use xlink:href="#m4b6b1cb738" x="212.408608" y="63.798891" style="fill: #70dee6; stroke: #70dee6"/>
     <use xlink:href="#m4b6b1cb738" x="236.385578" y="63.798891" style="fill: #70dee6; stroke: #70dee6"/>
     <use xlink:href="#m4b6b1cb738" x="260.362547" y="49.900326" style="fill: #70dee6; stroke: #70dee6"/>
     <use xlink:href="#m4b6b1cb738" x="284.339517" y="77.697455" style="fill: #70dee6; stroke: #70dee6"/>
     <use xlink:href="#m4b6b1cb738" x="308.316487" y="63.798891" style="fill: #70dee6; stroke: #70dee6"/>
     <use xlink:href="#m4b6b1cb738" x="332.293456" y="63.798891" style="fill: #70dee6; stroke: #70dee6"/>
     <use xlink:href="#m4b6b1cb738" x="356.270426" y="63.798891" style="fill: #70dee6; stroke: #70dee6"/>
     <use xlink:href="#m4b6b1cb738" x="380.247396" y="63.798891" style="fill: #70dee6; stroke: #70dee6"/>
     <use xlink:href="#m4b6b1cb738" x="404.224366" y="63.798891" style="fill: #70dee6; stroke: #70dee6"/>
     <use xlink:href="#m4b6b1cb738" x="428.201335" y="63.798891" style="fill: #70dee6; stroke: #70dee6"/>
    </g>
   </g>
   <g id="line2d_36">
    <path d="M 68.54679 300.074489 
L 92.523759 202.784536 
L 116.500729 63.798891 
L 140.477699 49.900326 
L 164.454669 77.697455 
L 188.431638 36.001761 
L 212.408608 91.59602 
L 236.385578 63.798891 
L 260.362547 63.798891 
L 284.339517 63.798891 
L 308.316487 63.798891 
L 332.293456 63.798891 
L 356.270426 63.798891 
L 380.247396 63.798891 
L 404.224366 49.900326 
L 428.201335 77.697455 
" clip-path="url(#p51b57f6c9c)" style="fill: none; stroke: #fc7ead; stroke-width: 1.5; stroke-linecap: square"/>
    <defs>
     <path id="m413e2ff36a" d="M -3 3 
L 3 3 
L 3 -3 
L -3 -3 
z
" style="stroke: #fc7ead; stroke-linejoin: miter"/>
    </defs>
    <g clip-path="url(#p51b57f6c9c)">
     <use xlink:href="#m413e2ff36a" x="68.54679" y="300.074489" style="fill: #fc7ead; stroke: #fc7ead; stroke-linejoin: miter"/>
     <use xlink:href="#m413e2ff36a" x="92.523759" y="202.784536" style="fill: #fc7ead; stroke: #fc7ead; stroke-linejoin: miter"/>
     <use xlink:href="#m413e2ff36a" x="116.500729" y="63.798891" style="fill: #fc7ead; stroke: #fc7ead; stroke-linejoin: miter"/>
     <use xlink:href="#m413e2ff36a" x="140.477699" y="49.900326" style="fill: #fc7ead; stroke: #fc7ead; stroke-linejoin: miter"/>
     <use xlink:href="#m413e2ff36a" x="164.454669" y="77.697455" style="fill: #fc7ead; stroke: #fc7ead; stroke-linejoin: miter"/>
     <use xlink:href="#m413e2ff36a" x="188.431638" y="36.001761" style="fill: #fc7ead; stroke: #fc7ead; stroke-linejoin: miter"/>
     <use xlink:href="#m413e2ff36a" x="212.408608" y="91.59602" style="fill: #fc7ead; stroke: #fc7ead; stroke-linejoin: miter"/>
     <use xlink:href="#m413e2ff36a" x="236.385578" y="63.798891" style="fill: #fc7ead; stroke: #fc7ead; stroke-linejoin: miter"/>
     <use xlink:href="#m413e2ff36a" x="260.362547" y="63.798891" style="fill: #fc7ead; stroke: #fc7ead; stroke-linejoin: miter"/>
     <use xlink:href="#m413e2ff36a" x="284.339517" y="63.798891" style="fill: #fc7ead; stroke: #fc7ead; stroke-linejoin: miter"/>
     <use xlink:href="#m413e2ff36a" x="308.316487" y="63.798891" style="fill: #fc7ead; stroke: #fc7ead; stroke-linejoin: miter"/>
     <use xlink:href="#m413e2ff36a" x="332.293456" y="63.798891" style="fill: #fc7ead; stroke: #fc7ead; stroke-linejoin: miter"/>
     <use xlink:href="#m413e2ff36a" x="356.270426" y="63.798891" style="fill: #fc7ead; stroke: #fc7ead; stroke-linejoin: miter"/>
     <use xlink:href="#m413e2ff36a" x="380.247396" y="63.798891" style="fill: #fc7ead; stroke: #fc7ead; stroke-linejoin: miter"/>
     <use xlink:href="#m413e2ff36a" x="404.224366" y="49.900326" style="fill: #fc7ead; stroke: #fc7ead; stroke-linejoin: miter"/>
     <use xlink:href="#m413e2ff36a" x="428.201335" y="77.697455" style="fill: #fc7ead; stroke: #fc7ead; stroke-linejoin: miter"/>
    </g>
   </g>
   <g id="patch_3">
    <path d="M 50.564063 313.278125 
L 50.564063 22.798125 
" style="fill: none; stroke: #000000; stroke-width: 0.8; stroke-linejoin: miter; stroke-linecap: square"/>
   </g>
   <g id="patch_4">
    <path d="M 446.184062 313.278125 
L 446.184062 22.798125 
" style="fill: none; stroke: #000000; stroke-width: 0.8; stroke-linejoin: miter; stroke-linecap: square"/>
   </g>
   <g id="patch_5">
    <path d="M 50.564063 313.278125 
L 446.184062 313.278125 
" style="fill: none; stroke: #000000; stroke-width: 0.8; stroke-linejoin: miter; stroke-linecap: square"/>
   </g>
   <g id="patch_6">
    <path d="M 50.564063 22.798125 
L 446.184062 22.798125 
" style="fill: none; stroke: #000000; stroke-width: 0.8; stroke-linejoin: miter; stroke-linecap: square"/>
   </g>
   <g id="text_27">
    <!-- Αποφάσεις ανά έτος -->
    <g transform="translate(187.352188 16.798125) scale(0.12 -0.12)">
     <defs>
      <path id="DejaVuSans-3ad" d="M 2282 5119 
L 2904 5119 
L 1886 3944 
L 1407 3944 
L 2282 5119 
z
M 1234 1888 
Q 884 1963 697 2166 
Q 509 2366 509 2656 
Q 509 3097 866 3344 
Q 1219 3588 1831 3588 
Q 2069 3588 2334 3550 
Q 2600 3513 2906 3438 
L 2906 2916 
Q 2603 3006 2353 3047 
Q 2100 3088 1878 3088 
Q 1506 3088 1291 2944 
Q 1072 2800 1072 2600 
Q 1072 2381 1284 2241 
Q 1494 2103 1856 2103 
L 2341 2103 
L 2341 1628 
L 1878 1628 
Q 1450 1628 1225 1469 
Q 981 1294 981 1019 
Q 981 738 1244 563 
Q 1509 388 1981 388 
Q 2272 388 2538 444 
Q 2803 503 3025 619 
L 3025 84 
Q 2744 -3 2481 -47 
Q 2216 -91 1966 -91 
Q 1222 -91 819 194 
Q 416 478 416 1019 
Q 416 1356 631 1584 
Q 847 1813 1234 1888 
z
" transform="scale(0.015625)"/>
      <path id="DejaVuSans-3c4" d="M 2319 638 
Q 2431 488 2769 488 
L 3047 488 
L 3047 0 
L 2700 0 
Q 2138 0 1881 300 
Q 1625 606 1625 1269 
L 1625 2925 
L 313 2925 
L 313 3500 
L 3541 3500 
L 3541 2925 
L 2213 2925 
L 2213 1234 
Q 2213 781 2319 638 
z
" transform="scale(0.015625)"/>
     </defs>
     <use xlink:href="#DejaVuSans-391"/>
     <use xlink:href="#DejaVuSans-3c0" transform="translate(68.408203 0)"/>
     <use xlink:href="#DejaVuSans-3bf" transform="translate(128.613281 0)"/>
     <use xlink:href="#DejaVuSans-3c6" transform="translate(189.794922 0)"/>
     <use xlink:href="#DejaVuSans-3ac" transform="translate(255.761719 0)"/>
     <use xlink:href="#DejaVuSans-3c3" transform="translate(321.679688 0)"/>
     <use xlink:href="#DejaVuSans-3b5" transform="translate(385.058594 0)"/>
     <use xlink:href="#DejaVuSans-3b9" transform="translate(439.111328 0)"/>
     <use xlink:href="#DejaVuSans-3c2" transform="translate(472.949219 0)"/>
     <use xlink:href="#DejaVuSans-20" transform="translate(531.640625 0)"/>
     <use xlink:href="#DejaVuSans-3b1" transform="translate(563.427734 0)"/>
     <use xlink:href="#DejaVuSans-3bd" transform="translate(629.345703 0)"/>
     <use xlink:href="#DejaVuSans-3ac" transform="translate(685.205078 0)"/>
     <use xlink:href="#DejaVuSans-20" transform="translate(751.123047 0)"/>
     <use xlink:href="#DejaVuSans-3ad" transform="translate(782.910156 0)"/>
     <use xlink:href="#DejaVuSans-3c4" transform="translate(836.962891 0)"/>
     <use xlink:href="#DejaVuSans-3bf" transform="translate(897.167969 0)"/>
     <use xlink:href="#DejaVuSans-3c2" transform="translate(958.349609 0)"/>
    </g>
   </g>
   <g id="legend_1">
    <g id="patch_7">
     <path d="M 362.08875 308.278125 
L 439.184062 308.278125 
Q 441.184062 308.278125 441.184062 306.278125 
L 441.184062 277.101562 
Q 441.184062 275.101562 439.184062 275.101562 
L 362.08875 275.101562 
Q 360.08875 275.101562 360.08875 277.101562 
L 360.08875 306.278125 
Q 360.08875 308.278125 362.08875 308.278125 
z
" style="fill: #ffffff; opacity: 0.8; stroke: #cccccc; stroke-linejoin: miter"/>
    </g>
    <g id="line2d_37">
     <path d="M 364.08875 283.6 
L 374.08875 283.6 
L 384.08875 283.6 
" style="fill: none; stroke: #70dee6; stroke-width: 1.5; stroke-linecap: square"/>
     <g>
      <use xlink:href="#m4b6b1cb738" x="374.08875" y="283.6" style="fill: #70dee6; stroke: #70dee6"/>
     </g>
    </g>
    <g id="text_28">
     <!-- Αθήνα -->
     <g transform="translate(392.08875 287.1) scale(0.1 -0.1)">
      <defs>
       <path id="DejaVuSans-3ae" d="M 2650 5119 
L 3272 5119 
L 2254 3944 
L 1775 3944 
L 2650 5119 
z
M 3513 2113 
L 3513 -1331 
L 2938 -1331 
L 2938 2094 
Q 2938 2591 2744 2837 
Q 2550 3084 2163 3084 
Q 1697 3084 1428 2787 
Q 1159 2491 1159 1978 
L 1159 0 
L 581 0 
L 581 3500 
L 1159 3500 
L 1159 2956 
Q 1366 3272 1644 3428 
Q 1925 3584 2291 3584 
Q 2894 3584 3203 3213 
Q 3513 2838 3513 2113 
z
" transform="scale(0.015625)"/>
      </defs>
      <use xlink:href="#DejaVuSans-391"/>
      <use xlink:href="#DejaVuSans-3b8" transform="translate(68.408203 0)"/>
      <use xlink:href="#DejaVuSans-3ae" transform="translate(129.589844 0)"/>
      <use xlink:href="#DejaVuSans-3bd" transform="translate(192.96875 0)"/>
      <use xlink:href="#DejaVuSans-3b1" transform="translate(248.828125 0)"/>
     </g>
    </g>
    <g id="line2d_38">
     <path d="M 364.08875 298.678125 
L 374.08875 298.678125 
L 384.08875 298.678125 
" style="fill: none; stroke: #fc7ead; stroke-width: 1.5; stroke-linecap: square"/>
     <g>
      <use xlink:href="#m413e2ff36a" x="374.08875" y="298.678125" style="fill: #fc7ead; stroke: #fc7ead; stroke-linejoin: miter"/>
     </g>
    </g>
    <g id="text_29">
     <!-- Πειραιάς -->
     <g transform="translate(392.08875 302.178125) scale(0.1 -0.1)">
      <defs>
       <path id="DejaVuSans-3a0" d="M 4184 4666 
L 4184 0 
L 3553 0 
L 3553 4134 
L 1259 4134 
L 1259 0 
L 628 0 
L 628 4666 
L 4184 4666 
z
" transform="scale(0.015625)"/>
      </defs>
      <use xlink:href="#DejaVuSans-3a0"/>
      <use xlink:href="#DejaVuSans-3b5" transform="translate(75.195312 0)"/>
      <use xlink:href="#DejaVuSans-3b9" transform="translate(129.248047 0)"/>
      <use xlink:href="#DejaVuSans-3c1" transform="translate(163.085938 0)"/>
      <use xlink:href="#DejaVuSans-3b1" transform="translate(226.5625 0)"/>
      <use xlink:href="#DejaVuSans-3b9" transform="translate(292.480469 0)"/>
      <use xlink:href="#DejaVuSans-3ac" transform="translate(326.318359 0)"/>
      <use xlink:href="#DejaVuSans-3c2" transform="translate(392.236328 0)"/>
     </g>
    </g>
   </g>
  </g>
 </g>
 <defs>
  <clipPath id="p51b57f6c9c">
   <rect x="50.564063" y="22.798125" width="395.62" height="290.48"/>
  </clipPath>
 </defs>
</svg>
