<?xml version="1.0" encoding="utf-8" standalone="no"?>
<!DOCTYPE svg PUBLIC "-//W3C//DTD SVG 1.1//EN"
  "http://www.w3.org/Graphics/SVG/1.1/DTD/svg11.dtd">
<svg xmlns:xlink="http://www.w3.org/1999/xlink" width="712.618437pt" height="351.55625pt" viewBox="0 0 712.618437 351.55625" xmlns="http://www.w3.org/2000/svg" version="1.1">
 <metadata>
  <rdf:RDF xmlns:dc="http://purl.org/dc/elements/1.1/" xmlns:cc="http://creativecommons.org/ns#" xmlns:rdf="http://www.w3.org/1999/02/22-rdf-syntax-ns#">
   <cc:Work>
    <dc:type rdf:resource="http://purl.org/dc/dcmitype/StillImage"/>
    <dc:date>2026-07-01T04:24:51.821273</dc:date>
    <dc:format>image/svg+xml</dc:format>
    <dc:creator>
     <cc:Agent>
      <dc:title>Matplotlib v3.10.0, https://matplotlib.org/</dc:title>
     </cc:Agent>
    </dc:creator>
   </cc:Work>
  </rdf:RDF>
 </metadata>
 <defs>
  <style type="text/css">*{stroke-linejoin: round; stroke-linecap: butt}</style>
 </defs>
 <g id="figure_1">
  <g id="patch_1">
   <path d="M -0 351.55625 
L 712.618437 351.55625 
L 712.618437 0 
L -0 0 
z
" style="fill: #ffffff"/>
  </g>
  <g id="axes_1">
   <g id="patch_2">
    <path d="M 53.748438 327.678125 
L 705.418438 327.678125 
L 705.418438 22.798125 
L 53.748438 22.798125 
z
" style="fill: #ffffff"/>
   </g>
   <g id="matplotlib.axis_1">
    <g id="xtick_1">
     <g id="line2d_1">
      <defs>
       <path id="medfa919544" d="M 0 0 
L 0 3.5 
" style="stroke: #000000; stroke-width: 0.8"/>
      </defs>
      <g>
       <use xlink:href="#medfa919544" x="83.369801" y="327.678125" style="stroke: #000000; stroke-width: 0.8"/>
      </g>
     </g>
     <g id="text_1">
      <!-- '11 -->
      <g transform="translate(75.633082 342.276562) scale(0.1 -0.1)">
       <defs>
        <path id="DejaVuSans-27" d="M 1147 4666 
L 1147 2931 
L 616 2931 
L 616 4666 
L 1147 4666 
z
" transform="scale(0.015625)"/>
        <path id="DejaVuSans-31" d="M 794 531 
L 1825 531 
L 1825 4091 
L 703 3866 
L 703 4441 
L 1819 4666 
L 2450 4666 
L 2450 531 
L 3481 531 
L 3481 0 
L 794 0 
L 794 531 
z
" transform="scale(0.015625)"/>
       </defs>
       <use xlink:href="#DejaVuSans-27"/>
       <use xlink:href="#DejaVuSans-31" transform="translate(27.490234 0)"/>
       <use xlink:href="#DejaVuSans-31" transform="translate(91.113281 0)"/>
      </g>
     </g>
    </g>
    <g id="xtick_2">
     <g id="line2d_2">
      <g>
       <use xlink:href="#medfa919544" x="122.864953" y="327.678125" style="stroke: #000000; stroke-width: 0.8"/>
      </g>
     </g>
     <g id="text_2">
      <!-- '12 -->
      <g transform="translate(115.128234 342.276562) scale(0.1 -0.1)">
       <defs>
        <path id="DejaVuSans-32" d="M 1228 531 
L 3431 531 
L 3431 0 
L 469 0 
L 469 531 
Q 828 903 1448 1529 
Q 2069 2156 2228 2338 
Q 2531 2678 2651 2914 
Q 2772 3150 2772 3378 
Q 2772 3750 2511 3984 
Q 2250 4219 1831 4219 
Q 1534 4219 1204 4116 
Q 875 4013 500 3803 
L 500 4441 
Q 881 4594 1212 4672 
Q 1544 4750 1819 4750 
Q 2544 4750 2975 4387 
Q 3406 4025 3406 3419 
Q 3406 3131 3298 2873 
Q 3191 2616 2906 2266 
Q 2828 2175 2409 1742 
Q 1991 1309 1228 531 
z
" transform="scale(0.015625)"/>
       </defs>
       <use xlink:href="#DejaVuSans-27"/>
       <use xlink:href="#DejaVuSans-31" transform="translate(27.490234 0)"/>
       <use xlink:href="#DejaVuSans-32" transform="translate(91.113281 0)"/>
      </g>
     </g>
    </g>
    <g id="xtick_3">
     <g id="line2d_3">
      <g>
       <use xlink:href="#medfa919544" x="162.360104" y="327.678125" style="stroke: #000000; stroke-width: 0.8"/>
      </g>
     </g>
     <g id="text_3">
      <!-- '13 -->
      <g transform="translate(154.623385 342.276562) scale(0.1 -0.1)">
       <defs>
        <path id="DejaVuSans-33" d="M 2597 2516 
Q 3050 2419 3304 2112 
Q 3559 1806 3559 1356 
Q 3559 666 3084 287 
Q 2609 -91 1734 -91 
Q 1441 -91 1130 -33 
Q 819 25 488 141 
L 488 750 
Q 750 597 1062 519 
Q 1375 441 1716 441 
Q 2309 441 2620 675 
Q 2931 909 2931 1356 
Q 2931 1769 2642 2001 
Q 2353 2234 1838 2234 
L 1294 2234 
L 1294 2753 
L 1863 2753 
Q 2328 2753 2575 2939 
Q 2822 3125 2822 3475 
Q 2822 3834 2567 4026 
Q 2313 4219 1838 4219 
Q 1578 4219 1281 4162 
Q 984 4106 628 3988 
L 628 4550 
Q 988 4650 1302 4700 
Q 1616 4750 1894 4750 
Q 2613 4750 3031 4423 
Q 3450 4097 3450 3541 
Q 3450 3153 3228 2886 
Q 3006 2619 2597 2516 
z
" transform="scale(0.015625)"/>
       </defs>
       <use xlink:href="#DejaVuSans-27"/>
       <use xlink:href="#DejaVuSans-31" transform="translate(27.490234 0)"/>
       <use xlink:href="#DejaVuSans-33" transform="translate(91.113281 0)"/>
      </g>
     </g>
    </g>
    <g id="xtick_4">
     <g id="line2d_4">
      <g>
       <use xlink:href="#medfa919544" x="201.855256" y="327.678125" style="stroke: #000000; stroke-width: 0.8"/>
      </g>
     </g>
     <g id="text_4">
      <!-- '14 -->
      <g transform="translate(194.118537 342.276562) scale(0.1 -0.1)">
       <defs>
        <path id="DejaVuSans-34" d="M 2419 4116 
L 825 1625 
L 2419 1625 
L 2419 4116 
z
M 2253 4666 
L 3047 4666 
L 3047 1625 
L 3713 1625 
L 3713 1100 
L 3047 1100 
L 3047 0 
L 2419 0 
L 2419 1100 
L 313 1100 
L 313 1709 
L 2253 4666 
z
" transform="scale(0.015625)"/>
       </defs>
       <use xlink:href="#DejaVuSans-27"/>
       <use xlink:href="#DejaVuSans-31" transform="translate(27.490234 0)"/>
       <use xlink:href="#DejaVuSans-34" transform="translate(91.113281 0)"/>
      </g>
     </g>
    </g>
    <g id="xtick_5">
     <g id="line2d_5">
      <g>
       <use xlink:href="#medfa919544" x="241.350407" y="327.678125" style="stroke: #000000; stroke-width: 0.8"/>
      </g>
     </g>
     <g id="text_5">
      <!-- '15 -->
      <g transform="translate(233.613688 342.276562) scale(0.1 -0.1)">
       <defs>
        <path id="DejaVuSans-35" d="M 691 4666 
L 3169 4666 
L 3169 4134 
L 1269 4134 
L 1269 2991 
Q 1406 3038 1543 3061 
Q 1681 3084 1819 3084 
Q 2600 3084 3056 2656 
Q 3513 2228 3513 1497 
Q 3513 744 3044 326 
Q 2575 -91 1722 -91 
Q 1428 -91 1123 -41 
Q 819 9 494 109 
L 494 744 
Q 775 591 1075 516 
Q 1375 441 1709 441 
Q 2250 441 2565 725 
Q 2881 1009 2881 1497 
Q 2881 1984 2565 2268 
Q 2250 2553 1709 2553 
Q 1456 2553 1204 2497 
Q 953 2441 691 2322 
L 691 4666 
z
" transform="scale(0.015625)"/>
       </defs>
       <use xlink:href="#DejaVuSans-27"/>
       <use xlink:href="#DejaVuSans-31" transform="translate(27.490234 0)"/>
       <use xlink:href="#DejaVuSans-35" transform="translate(91.113281 0)"/>
      </g>
     </g>
    </g>
    <g id="xtick_6">
     <g id="line2d_6">
      <g>
       <use xlink:href="#medfa919544" x="280.845559" y="327.678125" style="stroke: #000000; stroke-width: 0.8"/>
      </g>
     </g>
     <g id="text_6">
      <!-- '16 -->
      <g transform="translate(273.10884 342.276562) scale(0.1 -0.1)">
       <defs>
        <path id="DejaVuSans-36" d="M 2113 2584 
Q 1688 2584 1439 2293 
Q 1191 2003 1191 1497 
Q 1191 994 1439 701 
Q 1688 409 2113 409 
Q 2538 409 2786 701 
Q 3034 994 3034 1497 
Q 3034 2003 2786 2293 
Q 2538 2584 2113 2584 
z
M 3366 4563 
L 3366 3988 
Q 3128 4100 2886 4159 
Q 2644 4219 2406 4219 
Q 1781 4219 1451 3797 
Q 1122 3375 1075 2522 
Q 1259 2794 1537 2939 
Q 1816 3084 2150 3084 
Q 2853 3084 3261 2657 
Q 3669 2231 3669 1497 
Q 3669 778 3244 343 
Q 2819 -91 2113 -91 
Q 1303 -91 875 529 
Q 447 1150 447 2328 
Q 447 3434 972 4092 
Q 1497 4750 2381 4750 
Q 2619 4750 2861 4703 
Q 3103 4656 3366 4563 
z
" transform="scale(0.015625)"/>
       </defs>
       <use xlink:href="#DejaVuSans-27"/>
       <use xlink:href="#DejaVuSans-31" transform="translate(27.490234 0)"/>
       <use xlink:href="#DejaVuSans-36" transform="translate(91.113281 0)"/>
      </g>
     </g>
    </g>
    <g id="xtick_7">
     <g id="line2d_7">
      <g>
       <use xlink:href="#medfa919544" x="320.34071" y="327.678125" style="stroke: #000000; stroke-width: 0.8"/>
      </g>
     </g>
     <g id="text_7">
      <!-- '17 -->
      <g transform="translate(312.603991 342.276562) scale(0.1 -0.1)">
       <defs>
        <path id="DejaVuSans-37" d="M 525 4666 
L 3525 4666 
L 3525 4397 
L 1831 0 
L 1172 0 
L 2766 4134 
L 525 4134 
L 525 4666 
z
" transform="scale(0.015625)"/>
       </defs>
       <use xlink:href="#DejaVuSans-27"/>
       <use xlink:href="#DejaVuSans-31" transform="translate(27.490234 0)"/>
       <use xlink:href="#DejaVuSans-37" transform="translate(91.113281 0)"/>
      </g>
     </g>
    </g>
    <g id="xtick_8">
     <g id="line2d_8">
      <g>
       <use xlink:href="#medfa919544" x="359.835862" y="327.678125" style="stroke: #000000; stroke-width: 0.8"/>
      </g>
     </g>
     <g id="text_8">
      <!-- '18 -->
      <g transform="translate(352.099143 342.276562) scale(0.1 -0.1)">
       <defs>
        <path id="DejaVuSans-38" d="M 2034 2216 
Q 1584 2216 1326 1975 
Q 1069 1734 1069 1313 
Q 1069 891 1326 650 
Q 1584 409 2034 409 
Q 2484 409 2743 651 
Q 3003 894 3003 1313 
Q 3003 1734 2745 1975 
Q 2488 2216 2034 2216 
z
M 1403 2484 
Q 997 2584 770 2862 
Q 544 3141 544 3541 
Q 544 4100 942 4425 
Q 1341 4750 2034 4750 
Q 2731 4750 3128 4425 
Q 3525 4100 3525 3541 
Q 3525 3141 3298 2862 
Q 3072 2584 2669 2484 
Q 3125 2378 3379 2068 
Q 3634 1759 3634 1313 
Q 3634 634 3220 271 
Q 2806 -91 2034 -91 
Q 1263 -91 848 271 
Q 434 634 434 1313 
Q 434 1759 690 2068 
Q 947 2378 1403 2484 
z
M 1172 3481 
Q 1172 3119 1398 2916 
Q 1625 2713 2034 2713 
Q 2441 2713 2670 2916 
Q 2900 3119 2900 3481 
Q 2900 3844 2670 4047 
Q 2441 4250 2034 4250 
Q 1625 4250 1398 4047 
Q 1172 3844 1172 3481 
z
" transform="scale(0.015625)"/>
       </defs>
       <use xlink:href="#DejaVuSans-27"/>
       <use xlink:href="#DejaVuSans-31" transform="translate(27.490234 0)"/>
       <use xlink:href="#DejaVuSans-38" transform="translate(91.113281 0)"/>
      </g>
     </g>
    </g>
    <g id="xtick_9">
     <g id="line2d_9">
      <g>
       <use xlink:href="#medfa919544" x="399.331013" y="327.678125" style="stroke: #000000; stroke-width: 0.8"/>
      </g>
     </g>
     <g id="text_9">
      <!-- '19 -->
      <g transform="translate(391.594295 342.276562) scale(0.1 -0.1)">
       <defs>
        <path id="DejaVuSans-39" d="M 703 97 
L 703 672 
Q 941 559 1184 500 
Q 1428 441 1663 441 
Q 2288 441 2617 861 
Q 2947 1281 2994 2138 
Q 2813 1869 2534 1725 
Q 2256 1581 1919 1581 
Q 1219 1581 811 2004 
Q 403 2428 403 3163 
Q 403 3881 828 4315 
Q 1253 4750 1959 4750 
Q 2769 4750 3195 4129 
Q 3622 3509 3622 2328 
Q 3622 1225 3098 567 
Q 2575 -91 1691 -91 
Q 1453 -91 1209 -44 
Q 966 3 703 97 
z
M 1959 2075 
Q 2384 2075 2632 2365 
Q 2881 2656 2881 3163 
Q 2881 3666 2632 3958 
Q 2384 4250 1959 4250 
Q 1534 4250 1286 3958 
Q 1038 3666 1038 3163 
Q 1038 2656 1286 2365 
Q 1534 2075 1959 2075 
z
" transform="scale(0.015625)"/>
       </defs>
       <use xlink:href="#DejaVuSans-27"/>
       <use xlink:href="#DejaVuSans-31" transform="translate(27.490234 0)"/>
       <use xlink:href="#DejaVuSans-39" transform="translate(91.113281 0)"/>
      </g>
     </g>
    </g>
    <g id="xtick_10">
     <g id="line2d_10">
      <g>
       <use xlink:href="#medfa919544" x="438.826165" y="327.678125" style="stroke: #000000; stroke-width: 0.8"/>
      </g>
     </g>
     <g id="text_10">
      <!-- '20 -->
      <g transform="translate(431.089446 342.276562) scale(0.1 -0.1)">
       <defs>
        <path id="DejaVuSans-30" d="M 2034 4250 
Q 1547 4250 1301 3770 
Q 1056 3291 1056 2328 
Q 1056 1369 1301 889 
Q 1547 409 2034 409 
Q 2525 409 2770 889 
Q 3016 1369 3016 2328 
Q 3016 3291 2770 3770 
Q 2525 4250 2034 4250 
z
M 2034 4750 
Q 2819 4750 3233 4129 
Q 3647 3509 3647 2328 
Q 3647 1150 3233 529 
Q 2819 -91 2034 -91 
Q 1250 -91 836 529 
Q 422 1150 422 2328 
Q 422 3509 836 4129 
Q 1250 4750 2034 4750 
z
" transform="scale(0.015625)"/>
       </defs>
       <use xlink:href="#DejaVuSans-27"/>
       <use xlink:href="#DejaVuSans-32" transform="translate(27.490234 0)"/>
       <use xlink:href="#DejaVuSans-30" transform="translate(91.113281 0)"/>
      </g>
     </g>
    </g>
    <g id="xtick_11">
     <g id="line2d_11">
      <g>
       <use xlink:href="#medfa919544" x="478.321316" y="327.678125" style="stroke: #000000; stroke-width: 0.8"/>
      </g>
     </g>
     <g id="text_11">
      <!-- '21 -->
      <g transform="translate(470.584598 342.276562) scale(0.1 -0.1)">
       <use xlink:href="#DejaVuSans-27"/>
       <use xlink:href="#DejaVuSans-32" transform="translate(27.490234 0)"/>
       <use xlink:href="#DejaVuSans-31" transform="translate(91.113281 0)"/>
      </g>
     </g>
    </g>
    <g id="xtick_12">
     <g id="line2d_12">
      <g>
       <use xlink:href="#medfa919544" x="517.816468" y="327.678125" style="stroke: #000000; stroke-width: 0.8"/>
      </g>
     </g>
     <g id="text_12">
      <!-- '22 -->
      <g transform="translate(510.079749 342.276562) scale(0.1 -0.1)">
       <use xlink:href="#DejaVuSans-27"/>
       <use xlink:href="#DejaVuSans-32" transform="translate(27.490234 0)"/>
       <use xlink:href="#DejaVuSans-32" transform="translate(91.113281 0)"/>
      </g>
     </g>
    </g>
    <g id="xtick_13">
     <g id="line2d_13">
      <g>
       <use xlink:href="#medfa919544" x="557.311619" y="327.678125" style="stroke: #000000; stroke-width: 0.8"/>
      </g>
     </g>
     <g id="text_13">
      <!-- '23 -->
      <g transform="translate(549.574901 342.276562) scale(0.1 -0.1)">
       <use xlink:href="#DejaVuSans-27"/>
       <use xlink:href="#DejaVuSans-32" transform="translate(27.490234 0)"/>
       <use xlink:href="#DejaVuSans-33" transform="translate(91.113281 0)"/>
      </g>
     </g>
    </g>
    <g id="xtick_14">
     <g id="line2d_14">
      <g>
       <use xlink:href="#medfa919544" x="596.806771" y="327.678125" style="stroke: #000000; stroke-width: 0.8"/>
      </g>
     </g>
     <g id="text_14">
      <!-- '24 -->
      <g transform="translate(589.070052 342.276562) scale(0.1 -0.1)">
       <use xlink:href="#DejaVuSans-27"/>
       <use xlink:href="#DejaVuSans-32" transform="translate(27.490234 0)"/>
       <use xlink:href="#DejaVuSans-34" transform="translate(91.113281 0)"/>
      </g>
     </g>
    </g>
    <g id="xtick_15">
     <g id="line2d_15">
      <g>
       <use xlink:href="#medfa919544" x="636.301922" y="327.678125" style="stroke: #000000; stroke-width: 0.8"/>
      </g>
     </g>
     <g id="text_15">
      <!-- '25 -->
      <g transform="translate(628.565204 342.276562) scale(0.1 -0.1)">
       <use xlink:href="#DejaVuSans-27"/>
       <use xlink:href="#DejaVuSans-32" transform="translate(27.490234 0)"/>
       <use xlink:href="#DejaVuSans-35" transform="translate(91.113281 0)"/>
      </g>
     </g>
    </g>
    <g id="xtick_16">
     <g id="line2d_16">
      <g>
       <use xlink:href="#medfa919544" x="675.797074" y="327.678125" style="stroke: #000000; stroke-width: 0.8"/>
      </g>
     </g>
     <g id="text_16">
      <!-- '26 -->
      <g transform="translate(668.060355 342.276562) scale(0.1 -0.1)">
       <use xlink:href="#DejaVuSans-27"/>
       <use xlink:href="#DejaVuSans-32" transform="translate(27.490234 0)"/>
       <use xlink:href="#DejaVuSans-36" transform="translate(91.113281 0)"/>
      </g>
     </g>
    </g>
   </g>
   <g id="matplotlib.axis_2">
    <g id="ytick_1">
     <g id="line2d_17">
      <path d="M 53.748438 297.006708 
L 705.418438 297.006708 
" clip-path="url(#p998c952e3f)" style="fill: none; stroke-dasharray: 2.96,1.28; stroke-dashoffset: 0; stroke: #b0b0b0; stroke-opacity: 0.4; stroke-width: 0.8"/>
     </g>
     <g id="line2d_18">
      <defs>
       <path id="md564a9b3b6" d="M 0 0 
L -3.5 0 
" style="stroke: #000000; stroke-width: 0.8"/>
      </defs>
      <g>
       <use xlink:href="#md564a9b3b6" x="53.748438" y="297.006708" style="stroke: #000000; stroke-width: 0.8"/>
      </g>
     </g>
     <g id="text_17">
      <!-- 200 -->
      <g transform="translate(27.660938 300.805927) scale(0.1 -0.1)">
       <use xlink:href="#DejaVuSans-32"/>
       <use xlink:href="#DejaVuSans-30" transform="translate(63.623047 0)"/>
       <use xlink:href="#DejaVuSans-30" transform="translate(127.246094 0)"/>
      </g>
     </g>
    </g>
    <g id="ytick_2">
     <g id="line2d_19">
      <path d="M 53.748438 246.05751 
L 705.418438 246.05751 
" clip-path="url(#p998c952e3f)" style="fill: none; stroke-dasharray: 2.96,1.28; stroke-dashoffset: 0; stroke: #b0b0b0; stroke-opacity: 0.4; stroke-width: 0.8"/>
     </g>
     <g id="line2d_20">
      <g>
       <use xlink:href="#md564a9b3b6" x="53.748438" y="246.05751" style="stroke: #000000; stroke-width: 0.8"/>
      </g>
     </g>
     <g id="text_18">
      <!-- 400 -->
      <g transform="translate(27.660938 249.856729) scale(0.1 -0.1)">
       <use xlink:href="#DejaVuSans-34"/>
       <use xlink:href="#DejaVuSans-30" transform="translate(63.623047 0)"/>
       <use xlink:href="#DejaVuSans-30" transform="translate(127.246094 0)"/>
      </g>
     </g>
    </g>
    <g id="ytick_3">
     <g id="line2d_21">
      <path d="M 53.748438 195.108312 
L 705.418438 195.108312 
" clip-path="url(#p998c952e3f)" style="fill: none; stroke-dasharray: 2.96,1.28; stroke-dashoffset: 0; stroke: #b0b0b0; stroke-opacity: 0.4; stroke-width: 0.8"/>
     </g>
     <g id="line2d_22">
      <g>
       <use xlink:href="#md564a9b3b6" x="53.748438" y="195.108312" style="stroke: #000000; stroke-width: 0.8"/>
      </g>
     </g>
     <g id="text_19">
      <!-- 600 -->
      <g transform="translate(27.660938 198.907531) scale(0.1 -0.1)">
       <use xlink:href="#DejaVuSans-36"/>
       <use xlink:href="#DejaVuSans-30" transform="translate(63.623047 0)"/>
       <use xlink:href="#DejaVuSans-30" transform="translate(127.246094 0)"/>
      </g>
     </g>
    </g>
    <g id="ytick_4">
     <g id="line2d_23">
      <path d="M 53.748438 144.159114 
L 705.418438 144.159114 
" clip-path="url(#p998c952e3f)" style="fill: none; stroke-dasharray: 2.96,1.28; stroke-dashoffset: 0; stroke: #b0b0b0; stroke-opacity: 0.4; stroke-width: 0.8"/>
     </g>
     <g id="line2d_24">
      <g>
       <use xlink:href="#md564a9b3b6" x="53.748438" y="144.159114" style="stroke: #000000; stroke-width: 0.8"/>
      </g>
     </g>
     <g id="text_20">
      <!-- 800 -->
      <g transform="translate(27.660938 147.958333) scale(0.1 -0.1)">
       <use xlink:href="#DejaVuSans-38"/>
       <use xlink:href="#DejaVuSans-30" transform="translate(63.623047 0)"/>
       <use xlink:href="#DejaVuSans-30" transform="translate(127.246094 0)"/>
      </g>
     </g>
    </g>
    <g id="ytick_5">
     <g id="line2d_25">
      <path d="M 53.748438 93.209916 
L 705.418438 93.209916 
" clip-path="url(#p998c952e3f)" style="fill: none; stroke-dasharray: 2.96,1.28; stroke-dashoffset: 0; stroke: #b0b0b0; stroke-opacity: 0.4; stroke-width: 0.8"/>
     </g>
     <g id="line2d_26">
      <g>
       <use xlink:href="#md564a9b3b6" x="53.748438" y="93.209916" style="stroke: #000000; stroke-width: 0.8"/>
      </g>
     </g>
     <g id="text_21">
      <!-- 1000 -->
      <g transform="translate(21.298438 97.009135) scale(0.1 -0.1)">
       <use xlink:href="#DejaVuSans-31"/>
       <use xlink:href="#DejaVuSans-30" transform="translate(63.623047 0)"/>
       <use xlink:href="#DejaVuSans-30" transform="translate(127.246094 0)"/>
       <use xlink:href="#DejaVuSans-30" transform="translate(190.869141 0)"/>
      </g>
     </g>
    </g>
    <g id="ytick_6">
     <g id="line2d_27">
      <path d="M 53.748438 42.260719 
L 705.418438 42.260719 
" clip-path="url(#p998c952e3f)" style="fill: none; stroke-dasharray: 2.96,1.28; stroke-dashoffset: 0; stroke: #b0b0b0; stroke-opacity: 0.4; stroke-width: 0.8"/>
     </g>
     <g id="line2d_28">
      <g>
       <use xlink:href="#md564a9b3b6" x="53.748438" y="42.260719" style="stroke: #000000; stroke-width: 0.8"/>
      </g>
     </g>
     <g id="text_22">
      <!-- 1200 -->
      <g transform="translate(21.298438 46.059937) scale(0.1 -0.1)">
       <use xlink:href="#DejaVuSans-31"/>
       <use xlink:href="#DejaVuSans-32" transform="translate(63.623047 0)"/>
       <use xlink:href="#DejaVuSans-30" transform="translate(127.246094 0)"/>
       <use xlink:href="#DejaVuSans-30" transform="translate(190.869141 0)"/>
      </g>
     </g>
    </g>
    <g id="text_23">
     <!-- Ατομικές προσλήψεις -->
     <g transform="translate(15.198438 228.942031) rotate(-90) scale(0.1 -0.1)">
      <defs>
       <path id="DejaVuSans-391" d="M 2188 4044 
L 1331 1722 
L 3047 1722 
L 2188 4044 
z
M 1831 4666 
L 2547 4666 
L 4325 0 
L 3669 0 
L 3244 1197 
L 1141 1197 
L 716 0 
L 50 0 
L 1831 4666 
z
" transform="scale(0.015625)"/>
       <path id="DejaVuSans-3c4" d="M 2319 638 
Q 2431 488 2769 488 
L 3047 488 
L 3047 0 
L 2700 0 
Q 2138 0 1881 300 
Q 1625 606 1625 1269 
L 1625 2925 
L 313 2925 
L 313 3500 
L 3541 3500 
L 3541 2925 
L 2213 2925 
L 2213 1234 
Q 2213 781 2319 638 
z
" transform="scale(0.015625)"/>
       <path id="DejaVuSans-3bf" d="M 1959 3097 
Q 1497 3097 1228 2736 
Q 959 2375 959 1747 
Q 959 1119 1226 758 
Q 1494 397 1959 397 
Q 2419 397 2687 759 
Q 2956 1122 2956 1747 
Q 2956 2369 2687 2733 
Q 2419 3097 1959 3097 
z
M 1959 3584 
Q 2709 3584 3137 3096 
Q 3566 2609 3566 1747 
Q 3566 888 3137 398 
Q 2709 -91 1959 -91 
Q 1206 -91 779 398 
Q 353 888 353 1747 
Q 353 2609 779 3096 
Q 1206 3584 1959 3584 
z
" transform="scale(0.015625)"/>
       <path id="DejaVuSans-3bc" d="M 544 -1331 
L 544 3500 
L 1119 3500 
L 1119 1325 
Q 1119 872 1334 640 
Q 1550 409 1972 409 
Q 2434 409 2667 671 
Q 2900 934 2900 1459 
L 2900 3500 
L 3475 3500 
L 3475 806 
Q 3475 619 3529 530 
Q 3584 441 3700 441 
Q 3728 441 3778 458 
Q 3828 475 3916 513 
L 3916 50 
Q 3788 -22 3673 -56 
Q 3559 -91 3450 -91 
Q 3234 -91 3106 31 
Q 2978 153 2931 403 
Q 2775 156 2548 32 
Q 2322 -91 2016 -91 
Q 1697 -91 1473 31 
Q 1250 153 1119 397 
L 1119 -1331 
L 544 -1331 
z
" transform="scale(0.015625)"/>
       <path id="DejaVuSans-3b9" d="M 1109 3500 
L 1109 1234 
Q 1109 781 1216 638 
Q 1328 488 1666 488 
L 1944 488 
L 1944 0 
L 1597 0 
Q 1034 0 778 300 
Q 522 606 522 1269 
L 519 3500 
L 1109 3500 
z
" transform="scale(0.015625)"/>
       <path id="DejaVuSans-3ba" d="M 597 3500 
L 1191 3500 
L 1191 2047 
L 2700 3500 
L 3400 3500 
L 2022 2181 
L 3616 0 
L 2913 0 
L 1619 1806 
L 1191 1403 
L 1191 0 
L 597 0 
L 597 3500 
z
" transform="scale(0.015625)"/>
       <path id="DejaVuSans-3ad" d="M 2282 5119 
L 2904 5119 
L 1886 3944 
L 1407 3944 
L 2282 5119 
z
M 1234 1888 
Q 884 1963 697 2166 
Q 509 2366 509 2656 
Q 509 3097 866 3344 
Q 1219 3588 1831 3588 
Q 2069 3588 2334 3550 
Q 2600 3513 2906 3438 
L 2906 2916 
Q 2603 3006 2353 3047 
Q 2100 3088 1878 3088 
Q 1506 3088 1291 2944 
Q 1072 2800 1072 2600 
Q 1072 2381 1284 2241 
Q 1494 2103 1856 2103 
L 2341 2103 
L 2341 1628 
L 1878 1628 
Q 1450 1628 1225 1469 
Q 981 1294 981 1019 
Q 981 738 1244 563 
Q 1509 388 1981 388 
Q 2272 388 2538 444 
Q 2803 503 3025 619 
L 3025 84 
Q 2744 -3 2481 -47 
Q 2216 -91 1966 -91 
Q 1222 -91 819 194 
Q 416 478 416 1019 
Q 416 1356 631 1584 
Q 847 1813 1234 1888 
z
" transform="scale(0.015625)"/>
       <path id="DejaVuSans-3c2" d="M 2125 -91 
Q 1284 -91 818 406 
Q 353 903 353 1747 
Q 353 2603 823 3093 
Q 1294 3584 2113 3584 
Q 2378 3584 2631 3529 
Q 2884 3475 3122 3366 
L 3122 2828 
Q 2878 2963 2633 3030 
Q 2388 3097 2138 3097 
Q 1578 3097 1268 2742 
Q 959 2388 959 1747 
Q 959 1106 1268 751 
Q 1578 397 2125 397 
Q 2534 397 2784 159 
Q 3047 -88 3047 -463 
Q 3047 -822 2816 -1072 
Q 2566 -1344 2056 -1344 
Q 2056 -1109 2056 -872 
Q 2272 -888 2403 -750 
Q 2503 -641 2503 -525 
Q 2503 -359 2403 -222 
Q 2306 -91 2125 -91 
z
" transform="scale(0.015625)"/>
       <path id="DejaVuSans-20" transform="scale(0.015625)"/>
       <path id="DejaVuSans-3c0" d="M 231 3500 
L 3584 3500 
L 3584 2925 
L 3144 2925 
L 3144 775 
Q 3144 550 3220 451 
Q 3297 353 3469 353 
Q 3516 353 3584 361 
Q 3653 369 3675 372 
L 3675 -44 
Q 3566 -84 3450 -103 
Q 3334 -122 3219 -122 
Q 2844 -122 2700 83 
Q 2556 288 2556 838 
L 2556 2925 
L 1266 2925 
L 1266 0 
L 678 0 
L 678 2925 
L 231 2925 
L 231 3500 
z
" transform="scale(0.015625)"/>
       <path id="DejaVuSans-3c1" d="M 863 2875 
Q 1053 3194 1525 3475 
Q 1709 3584 2278 3584 
Q 2916 3584 3314 3078 
Q 3713 2572 3713 1747 
Q 3713 922 3314 415 
Q 2916 -91 2278 -91 
Q 1894 -91 1617 61 
Q 1341 213 1159 525 
L 1159 -1331 
L 581 -1331 
L 581 1716 
Q 581 2438 863 2875 
z
M 3116 1747 
Q 3116 2381 2855 2742 
Q 2594 3103 2138 3103 
Q 1681 3103 1420 2742 
Q 1159 2381 1159 1747 
Q 1159 1113 1420 752 
Q 1681 391 2138 391 
Q 2594 391 2855 752 
Q 3116 1113 3116 1747 
z
" transform="scale(0.015625)"/>
       <path id="DejaVuSans-3c3" d="M 1959 3044 
Q 1484 3044 1228 2700 
Q 959 2341 959 1747 
Q 959 1119 1226 758 
Q 1494 397 1959 397 
Q 2419 397 2687 759 
Q 2956 1122 2956 1747 
Q 2956 2319 2688 2700 
Q 2441 3044 1959 3044 
z
M 1959 3500 
L 3869 3500 
L 3869 2925 
L 3225 2925 
Q 3566 2438 3566 1747 
Q 3566 888 3138 400 
Q 2709 -91 1959 -91 
Q 1206 -91 781 400 
Q 353 888 353 1747 
Q 353 2613 781 3097 
Q 1134 3500 1959 3500 
z
" transform="scale(0.015625)"/>
       <path id="DejaVuSans-3bb" d="M 1981 4316 
L 3597 0 
L 2988 0 
L 2006 2588 
L 800 0 
L 191 0 
L 1725 3356 
L 1494 3975 
Q 1347 4369 1013 4369 
L 713 4369 
L 713 4863 
L 1078 4856 
Q 1784 4847 1981 4316 
z
" transform="scale(0.015625)"/>
       <path id="DejaVuSans-3ae" d="M 2650 5119 
L 3272 5119 
L 2254 3944 
L 1775 3944 
L 2650 5119 
z
M 3513 2113 
L 3513 -1331 
L 2938 -1331 
L 2938 2094 
Q 2938 2591 2744 2837 
Q 2550 3084 2163 3084 
Q 1697 3084 1428 2787 
Q 1159 2491 1159 1978 
L 1159 0 
L 581 0 
L 581 3500 
L 1159 3500 
L 1159 2956 
Q 1366 3272 1644 3428 
Q 1925 3584 2291 3584 
Q 2894 3584 3203 3213 
Q 3513 2838 3513 2113 
z
" transform="scale(0.015625)"/>
       <path id="DejaVuSans-3c8" d="M 1816 -78 
Q 1094 38 759 341 
Q 350 713 350 1472 
L 350 3500 
L 931 3500 
L 931 1494 
Q 931 922 1197 684 
Q 1428 478 1816 434 
L 1816 3500 
L 2388 3500 
L 2388 438 
Q 2797 481 3006 688 
Q 3272 950 3272 1497 
L 3272 3500 
L 3853 3500 
L 3853 1475 
Q 3853 688 3444 344 
Q 3075 34 2388 -75 
L 2388 -1331 
L 1816 -1331 
L 1816 -78 
z
" transform="scale(0.015625)"/>
       <path id="DejaVuSans-3b5" d="M 1234 1888 
Q 884 1963 697 2166 
Q 509 2366 509 2656 
Q 509 3097 866 3344 
Q 1219 3588 1831 3588 
Q 2069 3588 2334 3550 
Q 2600 3513 2906 3438 
L 2906 2916 
Q 2603 3006 2353 3047 
Q 2100 3088 1878 3088 
Q 1506 3088 1291 2944 
Q 1072 2800 1072 2600 
Q 1072 2381 1284 2241 
Q 1494 2103 1856 2103 
L 2341 2103 
L 2341 1628 
L 1878 1628 
Q 1450 1628 1225 1469 
Q 981 1294 981 1019 
Q 981 738 1244 563 
Q 1509 388 1981 388 
Q 2272 388 2538 444 
Q 2803 503 3025 619 
L 3025 84 
Q 2744 -3 2481 -47 
Q 2216 -91 1966 -91 
Q 1222 -91 819 194 
Q 416 478 416 1019 
Q 416 1356 631 1584 
Q 847 1813 1234 1888 
z
" transform="scale(0.015625)"/>
      </defs>
      <use xlink:href="#DejaVuSans-391"/>
      <use xlink:href="#DejaVuSans-3c4" transform="translate(68.408203 0)"/>
      <use xlink:href="#DejaVuSans-3bf" transform="translate(128.613281 0)"/>
      <use xlink:href="#DejaVuSans-3bc" transform="translate(189.794922 0)"/>
      <use xlink:href="#DejaVuSans-3b9" transform="translate(253.417969 0)"/>
      <use xlink:href="#DejaVuSans-3ba" transform="translate(287.255859 0)"/>
      <use xlink:href="#DejaVuSans-3ad" transform="translate(346.191406 0)"/>
      <use xlink:href="#DejaVuSans-3c2" transform="translate(400.244141 0)"/>
      <use xlink:href="#DejaVuSans-20" transform="translate(458.935547 0)"/>
      <use xlink:href="#DejaVuSans-3c0" transform="translate(490.722656 0)"/>
      <use xlink:href="#DejaVuSans-3c1" transform="translate(550.927734 0)"/>
      <use xlink:href="#DejaVuSans-3bf" transform="translate(614.404297 0)"/>
      <use xlink:href="#DejaVuSans-3c3" transform="translate(675.585938 0)"/>
      <use xlink:href="#DejaVuSans-3bb" transform="translate(738.964844 0)"/>
      <use xlink:href="#DejaVuSans-3ae" transform="translate(798.144531 0)"/>
      <use xlink:href="#DejaVuSans-3c8" transform="translate(861.523438 0)"/>
      <use xlink:href="#DejaVuSans-3b5" transform="translate(927.490234 0)"/>
      <use xlink:href="#DejaVuSans-3b9" transform="translate(981.542969 0)"/>
      <use xlink:href="#DejaVuSans-3c2" transform="translate(1015.380859 0)"/>
     </g>
    </g>
   </g>
   <g id="line2d_29">
    <path d="M 83.369801 159.443874 
L 122.864953 117.920277 
L 162.360104 294.204502 
L 201.855256 233.320211 
L 241.350407 93.719408 
L 280.845559 231.791735 
L 320.34071 113.080104 
L 359.835862 288.854836 
L 399.331013 247.33124 
L 438.826165 36.656307 
L 478.321316 109.258914 
L 517.816468 209.628834 
L 557.311619 236.631908 
L 596.806771 283.250424 
L 636.301922 248.350224 
L 675.797074 262.615999 
" clip-path="url(#p998c952e3f)" style="fill: none; stroke: #70dee6; stroke-width: 1.5; stroke-linecap: square"/>
    <defs>
     <path id="m0e838953df" d="M 0 3 
C 0.795609 3 1.55874 2.683901 2.12132 2.12132 
C 2.683901 1.55874 3 0.795609 3 0 
C 3 -0.795609 2.683901 -1.55874 2.12132 -2.12132 
C 1.55874 -2.683901 0.795609 -3 0 -3 
C -0.795609 -3 -1.55874 -2.683901 -2.12132 -2.12132 
C -2.683901 -1.55874 -3 -0.795609 -3 0 
C -3 0.795609 -2.683901 1.55874 -2.12132 2.12132 
C -1.55874 2.683901 -0.795609 3 0 3 
z
" style="stroke: #70dee6"/>
    </defs>
    <g clip-path="url(#p998c952e3f)">
     <use xlink:href="#m0e838953df" x="83.369801" y="159.443874" style="fill: #70dee6; stroke: #70dee6"/>
     <use xlink:href="#m0e838953df" x="122.864953" y="117.920277" style="fill: #70dee6; stroke: #70dee6"/>
     <use xlink:href="#m0e838953df" x="162.360104" y="294.204502" style="fill: #70dee6; stroke: #70dee6"/>
     <use xlink:href="#m0e838953df" x="201.855256" y="233.320211" style="fill: #70dee6; stroke: #70dee6"/>
     <use xlink:href="#m0e838953df" x="241.350407" y="93.719408" style="fill: #70dee6; stroke: #70dee6"/>
     <use xlink:href="#m0e838953df" x="280.845559" y="231.791735" style="fill: #70dee6; stroke: #70dee6"/>
     <use xlink:href="#m0e838953df" x="320.34071" y="113.080104" style="fill: #70dee6; stroke: #70dee6"/>
     <use xlink:href="#m0e838953df" x="359.835862" y="288.854836" style="fill: #70dee6; stroke: #70dee6"/>
     <use xlink:href="#m0e838953df" x="399.331013" y="247.33124" style="fill: #70dee6; stroke: #70dee6"/>
     <use xlink:href="#m0e838953df" x="438.826165" y="36.656307" style="fill: #70dee6; stroke: #70dee6"/>
     <use xlink:href="#m0e838953df" x="478.321316" y="109.258914" style="fill: #70dee6; stroke: #70dee6"/>
     <use xlink:href="#m0e838953df" x="517.816468" y="209.628834" style="fill: #70dee6; stroke: #70dee6"/>
     <use xlink:href="#m0e838953df" x="557.311619" y="236.631908" style="fill: #70dee6; stroke: #70dee6"/>
     <use xlink:href="#m0e838953df" x="596.806771" y="283.250424" style="fill: #70dee6; stroke: #70dee6"/>
     <use xlink:href="#m0e838953df" x="636.301922" y="248.350224" style="fill: #70dee6; stroke: #70dee6"/>
     <use xlink:href="#m0e838953df" x="675.797074" y="262.615999" style="fill: #70dee6; stroke: #70dee6"/>
    </g>
   </g>
   <g id="line2d_30">
    <path d="M 83.369801 266.182443 
L 122.864953 313.819943 
L 162.360104 84.293807 
L 201.855256 287.581106 
L 241.350407 152.05624 
L 280.845559 303.630104 
L 320.34071 292.42128 
L 359.835862 297.5162 
L 399.331013 287.32636 
L 438.826165 277.391267 
L 478.321316 231.027497 
L 517.816468 160.462858 
L 557.311619 135.497751 
L 596.806771 199.69374 
L 636.301922 147.725558 
L 675.797074 263.889729 
" clip-path="url(#p998c952e3f)" style="fill: none; stroke: #fc7ead; stroke-width: 1.5; stroke-linecap: square"/>
    <defs>
     <path id="m907d766567" d="M -3 3 
L 3 3 
L 3 -3 
L -3 -3 
z
" style="stroke: #fc7ead; stroke-linejoin: miter"/>
    </defs>
    <g clip-path="url(#p998c952e3f)">
     <use xlink:href="#m907d766567" x="83.369801" y="266.182443" style="fill: #fc7ead; stroke: #fc7ead; stroke-linejoin: miter"/>
     <use xlink:href="#m907d766567" x="122.864953" y="313.819943" style="fill: #fc7ead; stroke: #fc7ead; stroke-linejoin: miter"/>
     <use xlink:href="#m907d766567" x="162.360104" y="84.293807" style="fill: #fc7ead; stroke: #fc7ead; stroke-linejoin: miter"/>
     <use xlink:href="#m907d766567" x="201.855256" y="287.581106" style="fill: #fc7ead; stroke: #fc7ead; stroke-linejoin: miter"/>
     <use xlink:href="#m907d766567" x="241.350407" y="152.05624" style="fill: #fc7ead; stroke: #fc7ead; stroke-linejoin: miter"/>
     <use xlink:href="#m907d766567" x="280.845559" y="303.630104" style="fill: #fc7ead; stroke: #fc7ead; stroke-linejoin: miter"/>
     <use xlink:href="#m907d766567" x="320.34071" y="292.42128" style="fill: #fc7ead; stroke: #fc7ead; stroke-linejoin: miter"/>
     <use xlink:href="#m907d766567" x="359.835862" y="297.5162" style="fill: #fc7ead; stroke: #fc7ead; stroke-linejoin: miter"/>
     <use xlink:href="#m907d766567" x="399.331013" y="287.32636" style="fill: #fc7ead; stroke: #fc7ead; stroke-linejoin: miter"/>
     <use xlink:href="#m907d766567" x="438.826165" y="277.391267" style="fill: #fc7ead; stroke: #fc7ead; stroke-linejoin: miter"/>
     <use xlink:href="#m907d766567" x="478.321316" y="231.027497" style="fill: #fc7ead; stroke: #fc7ead; stroke-linejoin: miter"/>
     <use xlink:href="#m907d766567" x="517.816468" y="160.462858" style="fill: #fc7ead; stroke: #fc7ead; stroke-linejoin: miter"/>
     <use xlink:href="#m907d766567" x="557.311619" y="135.497751" style="fill: #fc7ead; stroke: #fc7ead; stroke-linejoin: miter"/>
     <use xlink:href="#m907d766567" x="596.806771" y="199.69374" style="fill: #fc7ead; stroke: #fc7ead; stroke-linejoin: miter"/>
     <use xlink:href="#m907d766567" x="636.301922" y="147.725558" style="fill: #fc7ead; stroke: #fc7ead; stroke-linejoin: miter"/>
     <use xlink:href="#m907d766567" x="675.797074" y="263.889729" style="fill: #fc7ead; stroke: #fc7ead; stroke-linejoin: miter"/>
    </g>
   </g>
   <g id="patch_3">
    <path d="M 53.748438 327.678125 
L 53.748438 22.798125 
" style="fill: none; stroke: #000000; stroke-width: 0.8; stroke-linejoin: miter; stroke-linecap: square"/>
   </g>
   <g id="patch_4">
    <path d="M 705.418438 327.678125 
L 705.418438 22.798125 
" style="fill: none; stroke: #000000; stroke-width: 0.8; stroke-linejoin: miter; stroke-linecap: square"/>
   </g>
   <g id="patch_5">
    <path d="M 53.748438 327.678125 
L 705.418438 327.678125 
" style="fill: none; stroke: #000000; stroke-width: 0.8; stroke-linejoin: miter; stroke-linecap: square"/>
   </g>
   <g id="patch_6">
    <path d="M 53.748438 22.798125 
L 705.418438 22.798125 
" style="fill: none; stroke: #000000; stroke-width: 0.8; stroke-linejoin: miter; stroke-linecap: square"/>
   </g>
   <g id="patch_7">
    <path d="M 558.120862 83.283751 
Q 499.403683 60.333594 441.727822 37.790447 
" style="fill: none; stroke: #808080; stroke-linecap: round"/>
    <path d="M 444.42553 40.77748 
L 441.727822 37.790447 
L 445.736074 37.4245 
" style="fill: none; stroke: #808080; stroke-linecap: round"/>
   </g>
   <g id="text_24">
    <!-- 1222 προσλήψεις το 2020 -->
    <g style="fill: #808080" transform="translate(517.816468 93.209916) scale(0.09 -0.09)">
     <use xlink:href="#DejaVuSans-31"/>
     <use xlink:href="#DejaVuSans-32" transform="translate(63.623047 0)"/>
     <use xlink:href="#DejaVuSans-32" transform="translate(127.246094 0)"/>
     <use xlink:href="#DejaVuSans-32" transform="translate(190.869141 0)"/>
     <use xlink:href="#DejaVuSans-20" transform="translate(254.492188 0)"/>
     <use xlink:href="#DejaVuSans-3c0" transform="translate(286.279297 0)"/>
     <use xlink:href="#DejaVuSans-3c1" transform="translate(346.484375 0)"/>
     <use xlink:href="#DejaVuSans-3bf" transform="translate(409.960938 0)"/>
     <use xlink:href="#DejaVuSans-3c3" transform="translate(471.142578 0)"/>
     <use xlink:href="#DejaVuSans-3bb" transform="translate(534.521484 0)"/>
     <use xlink:href="#DejaVuSans-3ae" transform="translate(593.701172 0)"/>
     <use xlink:href="#DejaVuSans-3c8" transform="translate(657.080078 0)"/>
     <use xlink:href="#DejaVuSans-3b5" transform="translate(723.046875 0)"/>
     <use xlink:href="#DejaVuSans-3b9" transform="translate(777.099609 0)"/>
     <use xlink:href="#DejaVuSans-3c2" transform="translate(810.9375 0)"/>
     <use xlink:href="#DejaVuSans-20" transform="translate(869.628906 0)"/>
     <use xlink:href="#DejaVuSans-3c4" transform="translate(901.416016 0)"/>
     <use xlink:href="#DejaVuSans-3bf" transform="translate(961.621094 0)"/>
     <use xlink:href="#DejaVuSans-20" transform="translate(1022.802734 0)"/>
     <use xlink:href="#DejaVuSans-32" transform="translate(1054.589844 0)"/>
     <use xlink:href="#DejaVuSans-30" transform="translate(1118.212891 0)"/>
     <use xlink:href="#DejaVuSans-32" transform="translate(1181.835938 0)"/>
     <use xlink:href="#DejaVuSans-30" transform="translate(1245.458984 0)"/>
    </g>
   </g>
   <g id="text_25">
    <!-- Προσλήψεις ανά έτος -->
    <g transform="translate(314.558438 16.798125) scale(0.12 -0.12)">
     <defs>
      <path id="DejaVuSans-3a0" d="M 4184 4666 
L 4184 0 
L 3553 0 
L 3553 4134 
L 1259 4134 
L 1259 0 
L 628 0 
L 628 4666 
L 4184 4666 
z
" transform="scale(0.015625)"/>
      <path id="DejaVuSans-3b1" d="M 2644 1628 
L 2506 2350 
Q 2366 3091 1809 3091 
Q 1391 3091 1200 2747 
Q 959 2316 959 1747 
Q 959 1059 1194 731 
Q 1431 397 1809 397 
Q 2228 397 2453 1063 
L 2644 1628 
z
M 2966 2584 
L 3275 3500 
L 3788 3500 
L 3147 1603 
L 3272 919 
Q 3300 766 3409 638 
Q 3538 488 3638 488 
L 3913 488 
L 3913 0 
L 3569 0 
Q 3275 0 3013 263 
Q 2884 394 2831 669 
Q 2688 322 2394 50 
Q 2256 -78 1809 -78 
Q 1075 -78 719 397 
Q 353 888 353 1747 
Q 353 2666 750 3097 
Q 1191 3578 1809 3578 
Q 2781 3578 2966 2584 
z
" transform="scale(0.015625)"/>
      <path id="DejaVuSans-3bd" d="M 1300 0 
L 231 3500 
L 850 3500 
L 1753 563 
Q 2128 950 2441 1488 
Q 2678 1891 2691 2241 
Q 2697 2406 2622 2719 
Q 2534 3091 2203 3500 
L 2784 3500 
L 2784 3500 
Q 3000 3222 3144 2834 
Q 3275 2478 3275 2234 
Q 3275 1622 2850 1075 
Q 2297 363 1913 0 
L 1300 0 
z
" transform="scale(0.015625)"/>
      <path id="DejaVuSans-3ac" d="M 2644 1628 
L 2506 2350 
Q 2366 3091 1809 3091 
Q 1391 3091 1200 2747 
Q 959 2316 959 1747 
Q 959 1059 1194 731 
Q 1431 397 1809 397 
Q 2228 397 2453 1063 
L 2644 1628 
z
M 2966 2584 
L 3275 3500 
L 3788 3500 
L 3147 1603 
L 3272 919 
Q 3300 766 3409 638 
Q 3538 488 3638 488 
L 3913 488 
L 3913 0 
L 3569 0 
Q 3275 0 3013 263 
Q 2884 394 2831 669 
Q 2688 322 2394 50 
Q 2256 -78 1809 -78 
Q 1075 -78 719 397 
Q 353 888 353 1747 
Q 353 2666 750 3097 
Q 1191 3578 1809 3578 
Q 2781 3578 2966 2584 
z
M 2378 5119 
L 3000 5119 
L 1982 3944 
L 1503 3944 
L 2378 5119 
z
" transform="scale(0.015625)"/>
     </defs>
     <use xlink:href="#DejaVuSans-3a0"/>
     <use xlink:href="#DejaVuSans-3c1" transform="translate(75.195312 0)"/>
     <use xlink:href="#DejaVuSans-3bf" transform="translate(138.671875 0)"/>
     <use xlink:href="#DejaVuSans-3c3" transform="translate(199.853516 0)"/>
     <use xlink:href="#DejaVuSans-3bb" transform="translate(263.232422 0)"/>
     <use xlink:href="#DejaVuSans-3ae" transform="translate(322.412109 0)"/>
     <use xlink:href="#DejaVuSans-3c8" transform="translate(385.791016 0)"/>
     <use xlink:href="#DejaVuSans-3b5" transform="translate(451.757812 0)"/>
     <use xlink:href="#DejaVuSans-3b9" transform="translate(505.810547 0)"/>
     <use xlink:href="#DejaVuSans-3c2" transform="translate(539.648438 0)"/>
     <use xlink:href="#DejaVuSans-20" transform="translate(598.339844 0)"/>
     <use xlink:href="#DejaVuSans-3b1" transform="translate(630.126953 0)"/>
     <use xlink:href="#DejaVuSans-3bd" transform="translate(696.044922 0)"/>
     <use xlink:href="#DejaVuSans-3ac" transform="translate(751.904297 0)"/>
     <use xlink:href="#DejaVuSans-20" transform="translate(817.822266 0)"/>
     <use xlink:href="#DejaVuSans-3ad" transform="translate(849.609375 0)"/>
     <use xlink:href="#DejaVuSans-3c4" transform="translate(903.662109 0)"/>
     <use xlink:href="#DejaVuSans-3bf" transform="translate(963.867188 0)"/>
     <use xlink:href="#DejaVuSans-3c2" transform="translate(1025.048828 0)"/>
    </g>
   </g>
   <g id="legend_1">
    <g id="patch_8">
     <path d="M 60.748438 60.974687 
L 137.84375 60.974687 
Q 139.84375 60.974687 139.84375 58.974687 
L 139.84375 29.798125 
Q 139.84375 27.798125 137.84375 27.798125 
L 60.748438 27.798125 
Q 58.748438 27.798125 58.748438 29.798125 
L 58.748438 58.974687 
Q 58.748438 60.974687 60.748438 60.974687 
z
" style="fill: #ffffff; opacity: 0.8; stroke: #cccccc; stroke-linejoin: miter"/>
    </g>
    <g id="line2d_31">
     <path d="M 62.748438 36.296562 
L 72.748438 36.296562 
L 82.748438 36.296562 
" style="fill: none; stroke: #70dee6; stroke-width: 1.5; stroke-linecap: square"/>
     <g>
      <use xlink:href="#m0e838953df" x="72.748438" y="36.296562" style="fill: #70dee6; stroke: #70dee6"/>
     </g>
    </g>
    <g id="text_26">
     <!-- Αθήνα -->
     <g transform="translate(90.748438 39.796562) scale(0.1 -0.1)">
      <defs>
       <path id="DejaVuSans-3b8" d="M 2953 2219 
L 963 2219 
Q 1009 1284 1225 888 
Q 1494 400 1959 400 
Q 2428 400 2688 891 
Q 2916 1322 2953 2219 
z
M 2944 2750 
Q 2856 3638 2688 3950 
Q 2419 4444 1959 4444 
Q 1481 4444 1228 3956 
Q 1028 3563 969 2750 
L 2944 2750 
z
M 1959 4913 
Q 2709 4913 3138 4250 
Q 3566 3591 3566 2422 
Q 3566 1256 3138 594 
Q 2709 -72 1959 -72 
Q 1206 -72 781 594 
Q 353 1256 353 2422 
Q 353 3591 781 4250 
Q 1206 4913 1959 4913 
z
" transform="scale(0.015625)"/>
      </defs>
      <use xlink:href="#DejaVuSans-391"/>
      <use xlink:href="#DejaVuSans-3b8" transform="translate(68.408203 0)"/>
      <use xlink:href="#DejaVuSans-3ae" transform="translate(129.589844 0)"/>
      <use xlink:href="#DejaVuSans-3bd" transform="translate(192.96875 0)"/>
      <use xlink:href="#DejaVuSans-3b1" transform="translate(248.828125 0)"/>
     </g>
    </g>
    <g id="line2d_32">
     <path d="M 62.748438 51.374687 
L 72.748438 51.374687 
L 82.748438 51.374687 
" style="fill: none; stroke: #fc7ead; stroke-width: 1.5; stroke-linecap: square"/>
     <g>
      <use xlink:href="#m907d766567" x="72.748438" y="51.374687" style="fill: #fc7ead; stroke: #fc7ead; stroke-linejoin: miter"/>
     </g>
    </g>
    <g id="text_27">
     <!-- Πειραιάς -->
     <g transform="translate(90.748438 54.874687) scale(0.1 -0.1)">
      <use xlink:href="#DejaVuSans-3a0"/>
      <use xlink:href="#DejaVuSans-3b5" transform="translate(75.195312 0)"/>
      <use xlink:href="#DejaVuSans-3b9" transform="translate(129.248047 0)"/>
      <use xlink:href="#DejaVuSans-3c1" transform="translate(163.085938 0)"/>
      <use xlink:href="#DejaVuSans-3b1" transform="translate(226.5625 0)"/>
      <use xlink:href="#DejaVuSans-3b9" transform="translate(292.480469 0)"/>
      <use xlink:href="#DejaVuSans-3ac" transform="translate(326.318359 0)"/>
      <use xlink:href="#DejaVuSans-3c2" transform="translate(392.236328 0)"/>
     </g>
    </g>
   </g>
  </g>
 </g>
 <defs>
  <clipPath id="p998c952e3f">
   <rect x="53.748438" y="22.798125" width="651.67" height="304.88"/>
  </clipPath>
 </defs>
</svg>
