<?xml version="1.0" encoding="utf-8" standalone="no"?>
<!DOCTYPE svg PUBLIC "-//W3C//DTD SVG 1.1//EN"
  "http://www.w3.org/Graphics/SVG/1.1/DTD/svg11.dtd">
<svg xmlns:xlink="http://www.w3.org/1999/xlink" width="712.8975pt" height="351.655776pt" viewBox="0 0 712.8975 351.655776" xmlns="http://www.w3.org/2000/svg" version="1.1">
 <metadata>
  <rdf:RDF xmlns:dc="http://purl.org/dc/elements/1.1/" xmlns:cc="http://creativecommons.org/ns#" xmlns:rdf="http://www.w3.org/1999/02/22-rdf-syntax-ns#">
   <cc:Work>
    <dc:type rdf:resource="http://purl.org/dc/dcmitype/StillImage"/>
    <dc:date>2026-07-01T03:45:59.529832</dc:date>
    <dc:format>image/svg+xml</dc:format>
    <dc:creator>
     <cc:Agent>
      <dc:title>Matplotlib v3.10.0, https://matplotlib.org/</dc:title>
     </cc:Agent>
    </dc:creator>
   </cc:Work>
  </rdf:RDF>
 </metadata>
 <defs>
  <style type="text/css">*{stroke-linejoin: round; stroke-linecap: butt}</style>
 </defs>
 <g id="figure_1">
  <g id="patch_1">
   <path d="M 0 351.655776 
L 712.8975 351.655776 
L 712.8975 0 
L 0 0 
z
" style="fill: #ffffff"/>
  </g>
  <g id="axes_1">
   <g id="patch_2">
    <path d="M 33.2875 291.515804 
L 705.6975 291.515804 
L 705.6975 22.798125 
L 33.2875 22.798125 
z
" style="fill: #ffffff"/>
   </g>
   <g id="patch_3">
    <path d="M 63.851591 291.515804 
L 138.921288 291.515804 
L 138.921288 35.594205 
L 63.851591 35.594205 
z
" clip-path="url(#p3955cf648e)" style="fill: #ed9632; opacity: 0.9; stroke: #ffffff; stroke-linejoin: miter"/>
   </g>
   <g id="patch_4">
    <path d="M 171.094015 291.515804 
L 246.163712 291.515804 
L 246.163712 167.656312 
L 171.094015 167.656312 
z
" clip-path="url(#p3955cf648e)" style="fill: #ed9632; opacity: 0.9; stroke: #ffffff; stroke-linejoin: miter"/>
   </g>
   <g id="patch_5">
    <path d="M 278.336439 291.515804 
L 353.406136 291.515804 
L 353.406136 279.211881 
L 278.336439 279.211881 
z
" clip-path="url(#p3955cf648e)" style="fill: #ed9632; opacity: 0.9; stroke: #ffffff; stroke-linejoin: miter"/>
   </g>
   <g id="patch_6">
    <path d="M 385.578864 291.515804 
L 460.648561 291.515804 
L 460.648561 286.594235 
L 385.578864 286.594235 
z
" clip-path="url(#p3955cf648e)" style="fill: #ed9632; opacity: 0.9; stroke: #ffffff; stroke-linejoin: miter"/>
   </g>
   <g id="patch_7">
    <path d="M 492.821288 291.515804 
L 567.890985 291.515804 
L 567.890985 289.875281 
L 492.821288 289.875281 
z
" clip-path="url(#p3955cf648e)" style="fill: #ed9632; opacity: 0.9; stroke: #ffffff; stroke-linejoin: miter"/>
   </g>
   <g id="patch_8">
    <path d="M 600.063712 291.515804 
L 675.133409 291.515804 
L 675.133409 275.930835 
L 600.063712 275.930835 
z
" clip-path="url(#p3955cf648e)" style="fill: #ed9632; opacity: 0.9; stroke: #ffffff; stroke-linejoin: miter"/>
   </g>
   <g id="matplotlib.axis_1">
    <g id="xtick_1">
     <g id="line2d_1">
      <defs>
       <path id="m80d7810bd4" d="M 0 0 
L 0 3.5 
" style="stroke: #000000; stroke-width: 0.8"/>
      </defs>
      <g>
       <use xlink:href="#m80d7810bd4" x="101.386439" y="291.515804" style="stroke: #000000; stroke-width: 0.8"/>
      </g>
     </g>
     <g id="text_1">
      <!-- Ορ. χρόνου -->
      <g transform="translate(49.470503 329.562881) rotate(-25) scale(0.1 -0.1)">
       <defs>
        <path id="DejaVuSans-39f" d="M 2522 4238 
Q 1834 4238 1429 3725 
Q 1025 3213 1025 2328 
Q 1025 1447 1429 934 
Q 1834 422 2522 422 
Q 3209 422 3611 934 
Q 4013 1447 4013 2328 
Q 4013 3213 3611 3725 
Q 3209 4238 2522 4238 
z
M 2522 4750 
Q 3503 4750 4090 4092 
Q 4678 3434 4678 2328 
Q 4678 1225 4090 567 
Q 3503 -91 2522 -91 
Q 1538 -91 948 565 
Q 359 1222 359 2328 
Q 359 3434 948 4092 
Q 1538 4750 2522 4750 
z
" transform="scale(0.015625)"/>
        <path id="DejaVuSans-3c1" d="M 863 2875 
Q 1053 3194 1525 3475 
Q 1709 3584 2278 3584 
Q 2916 3584 3314 3078 
Q 3713 2572 3713 1747 
Q 3713 922 3314 415 
Q 2916 -91 2278 -91 
Q 1894 -91 1617 61 
Q 1341 213 1159 525 
L 1159 -1331 
L 581 -1331 
L 581 1716 
Q 581 2438 863 2875 
z
M 3116 1747 
Q 3116 2381 2855 2742 
Q 2594 3103 2138 3103 
Q 1681 3103 1420 2742 
Q 1159 2381 1159 1747 
Q 1159 1113 1420 752 
Q 1681 391 2138 391 
Q 2594 391 2855 752 
Q 3116 1113 3116 1747 
z
" transform="scale(0.015625)"/>
        <path id="DejaVuSans-2e" d="M 684 794 
L 1344 794 
L 1344 0 
L 684 0 
L 684 794 
z
" transform="scale(0.015625)"/>
        <path id="DejaVuSans-20" transform="scale(0.015625)"/>
        <path id="DejaVuSans-3c7" d="M 2288 -781 
L 1822 416 
L 863 -1334 
L 184 -1334 
L 1541 1141 
L 972 2613 
Q 819 3006 338 3006 
L 184 3006 
L 184 3500 
L 403 3494 
Q 1209 3472 1413 2950 
L 1875 1753 
L 2834 3503 
L 3513 3503 
L 2156 1028 
L 2725 -444 
Q 2878 -838 3359 -838 
L 3513 -838 
L 3513 -1331 
L 3294 -1325 
Q 2488 -1303 2288 -781 
z
" transform="scale(0.015625)"/>
        <path id="DejaVuSans-3cc" d="M 2426 5119 
L 3048 5119 
L 2030 3944 
L 1551 3944 
L 2426 5119 
z
M 1959 3097 
Q 1497 3097 1228 2736 
Q 959 2375 959 1747 
Q 959 1119 1226 758 
Q 1494 397 1959 397 
Q 2419 397 2687 759 
Q 2956 1122 2956 1747 
Q 2956 2369 2687 2733 
Q 2419 3097 1959 3097 
z
M 1959 3584 
Q 2709 3584 3137 3096 
Q 3566 2609 3566 1747 
Q 3566 888 3137 398 
Q 2709 -91 1959 -91 
Q 1206 -91 779 398 
Q 353 888 353 1747 
Q 353 2609 779 3096 
Q 1206 3584 1959 3584 
z
" transform="scale(0.015625)"/>
        <path id="DejaVuSans-3bd" d="M 1300 0 
L 231 3500 
L 850 3500 
L 1753 563 
Q 2128 950 2441 1488 
Q 2678 1891 2691 2241 
Q 2697 2406 2622 2719 
Q 2534 3091 2203 3500 
L 2784 3500 
L 2784 3500 
Q 3000 3222 3144 2834 
Q 3275 2478 3275 2234 
Q 3275 1622 2850 1075 
Q 2297 363 1913 0 
L 1300 0 
z
" transform="scale(0.015625)"/>
        <path id="DejaVuSans-3bf" d="M 1959 3097 
Q 1497 3097 1228 2736 
Q 959 2375 959 1747 
Q 959 1119 1226 758 
Q 1494 397 1959 397 
Q 2419 397 2687 759 
Q 2956 1122 2956 1747 
Q 2956 2369 2687 2733 
Q 2419 3097 1959 3097 
z
M 1959 3584 
Q 2709 3584 3137 3096 
Q 3566 2609 3566 1747 
Q 3566 888 3137 398 
Q 2709 -91 1959 -91 
Q 1206 -91 779 398 
Q 353 888 353 1747 
Q 353 2609 779 3096 
Q 1206 3584 1959 3584 
z
" transform="scale(0.015625)"/>
        <path id="DejaVuSans-3c5" d="M 1056 3500 
L 1056 1234 
Q 1056 813 1213 613 
Q 1384 397 1719 397 
Q 2188 397 2516 1047 
Q 2700 1416 2747 2000 
Q 2772 2319 2678 2719 
Q 2591 3091 2259 3500 
L 2841 3500 
L 2841 3500 
Q 3059 3219 3200 2834 
Q 3331 2475 3331 1994 
Q 3331 1203 2931 619 
Q 2444 -94 1650 -91 
Q 1091 -91 775 284 
Q 469 653 469 1269 
L 466 3500 
L 1056 3500 
z
" transform="scale(0.015625)"/>
       </defs>
       <use xlink:href="#DejaVuSans-39f"/>
       <use xlink:href="#DejaVuSans-3c1" transform="translate(78.710938 0)"/>
       <use xlink:href="#DejaVuSans-2e" transform="translate(142.1875 0)"/>
       <use xlink:href="#DejaVuSans-20" transform="translate(173.974609 0)"/>
       <use xlink:href="#DejaVuSans-3c7" transform="translate(205.761719 0)"/>
       <use xlink:href="#DejaVuSans-3c1" transform="translate(263.525391 0)"/>
       <use xlink:href="#DejaVuSans-3cc" transform="translate(327.001953 0)"/>
       <use xlink:href="#DejaVuSans-3bd" transform="translate(388.183594 0)"/>
       <use xlink:href="#DejaVuSans-3bf" transform="translate(444.042969 0)"/>
       <use xlink:href="#DejaVuSans-3c5" transform="translate(505.224609 0)"/>
      </g>
     </g>
    </g>
    <g id="xtick_2">
     <g id="line2d_2">
      <g>
       <use xlink:href="#m80d7810bd4" x="208.628864" y="291.515804" style="stroke: #000000; stroke-width: 0.8"/>
      </g>
     </g>
     <g id="text_2">
      <!-- Μίσθωσης έργου -->
      <g transform="translate(131.484062 341.324215) rotate(-25) scale(0.1 -0.1)">
       <defs>
        <path id="DejaVuSans-39c" d="M 628 4666 
L 1569 4666 
L 2759 1491 
L 3956 4666 
L 4897 4666 
L 4897 0 
L 4281 0 
L 4281 4097 
L 3078 897 
L 2444 897 
L 1241 4097 
L 1241 0 
L 628 0 
L 628 4666 
z
" transform="scale(0.015625)"/>
        <path id="DejaVuSans-3af" d="M 1109 3500 
L 1109 1234 
Q 1109 781 1216 638 
Q 1328 488 1666 488 
L 1944 488 
L 1944 0 
L 1597 0 
Q 1034 0 778 300 
Q 522 606 522 1269 
L 519 3500 
L 1109 3500 
z
M 1450 5119 
L 2072 5119 
L 1054 3944 
L 575 3944 
L 1450 5119 
z
" transform="scale(0.015625)"/>
        <path id="DejaVuSans-3c3" d="M 1959 3044 
Q 1484 3044 1228 2700 
Q 959 2341 959 1747 
Q 959 1119 1226 758 
Q 1494 397 1959 397 
Q 2419 397 2687 759 
Q 2956 1122 2956 1747 
Q 2956 2319 2688 2700 
Q 2441 3044 1959 3044 
z
M 1959 3500 
L 3869 3500 
L 3869 2925 
L 3225 2925 
Q 3566 2438 3566 1747 
Q 3566 888 3138 400 
Q 2709 -91 1959 -91 
Q 1206 -91 781 400 
Q 353 888 353 1747 
Q 353 2613 781 3097 
Q 1134 3500 1959 3500 
z
" transform="scale(0.015625)"/>
        <path id="DejaVuSans-3b8" d="M 2953 2219 
L 963 2219 
Q 1009 1284 1225 888 
Q 1494 400 1959 400 
Q 2428 400 2688 891 
Q 2916 1322 2953 2219 
z
M 2944 2750 
Q 2856 3638 2688 3950 
Q 2419 4444 1959 4444 
Q 1481 4444 1228 3956 
Q 1028 3563 969 2750 
L 2944 2750 
z
M 1959 4913 
Q 2709 4913 3138 4250 
Q 3566 3591 3566 2422 
Q 3566 1256 3138 594 
Q 2709 -72 1959 -72 
Q 1206 -72 781 594 
Q 353 1256 353 2422 
Q 353 3591 781 4250 
Q 1206 4913 1959 4913 
z
" transform="scale(0.015625)"/>
        <path id="DejaVuSans-3c9" d="M 1719 -91 
Q 422 -91 422 1766 
Q 422 2500 906 3500 
L 1525 3500 
Q 1078 2500 1078 1750 
Q 1078 397 1772 397 
Q 2406 397 2406 2078 
L 2938 2078 
Q 2938 397 3572 397 
Q 4266 397 4266 1750 
Q 4266 2500 3819 3500 
L 4438 3500 
Q 4922 2500 4922 1766 
Q 4922 -91 3625 -91 
Q 2775 -91 2672 844 
Q 2544 -91 1719 -91 
z
" transform="scale(0.015625)"/>
        <path id="DejaVuSans-3b7" d="M 3513 2113 
L 3513 -1331 
L 2938 -1331 
L 2938 2094 
Q 2938 2591 2744 2837 
Q 2550 3084 2163 3084 
Q 1697 3084 1428 2787 
Q 1159 2491 1159 1978 
L 1159 0 
L 581 0 
L 581 3500 
L 1159 3500 
L 1159 2956 
Q 1366 3272 1644 3428 
Q 1925 3584 2291 3584 
Q 2894 3584 3203 3213 
Q 3513 2838 3513 2113 
z
" transform="scale(0.015625)"/>
        <path id="DejaVuSans-3c2" d="M 2125 -91 
Q 1284 -91 818 406 
Q 353 903 353 1747 
Q 353 2603 823 3093 
Q 1294 3584 2113 3584 
Q 2378 3584 2631 3529 
Q 2884 3475 3122 3366 
L 3122 2828 
Q 2878 2963 2633 3030 
Q 2388 3097 2138 3097 
Q 1578 3097 1268 2742 
Q 959 2388 959 1747 
Q 959 1106 1268 751 
Q 1578 397 2125 397 
Q 2534 397 2784 159 
Q 3047 -88 3047 -463 
Q 3047 -822 2816 -1072 
Q 2566 -1344 2056 -1344 
Q 2056 -1109 2056 -872 
Q 2272 -888 2403 -750 
Q 2503 -641 2503 -525 
Q 2503 -359 2403 -222 
Q 2306 -91 2125 -91 
z
" transform="scale(0.015625)"/>
        <path id="DejaVuSans-3ad" d="M 2282 5119 
L 2904 5119 
L 1886 3944 
L 1407 3944 
L 2282 5119 
z
M 1234 1888 
Q 884 1963 697 2166 
Q 509 2366 509 2656 
Q 509 3097 866 3344 
Q 1219 3588 1831 3588 
Q 2069 3588 2334 3550 
Q 2600 3513 2906 3438 
L 2906 2916 
Q 2603 3006 2353 3047 
Q 2100 3088 1878 3088 
Q 1506 3088 1291 2944 
Q 1072 2800 1072 2600 
Q 1072 2381 1284 2241 
Q 1494 2103 1856 2103 
L 2341 2103 
L 2341 1628 
L 1878 1628 
Q 1450 1628 1225 1469 
Q 981 1294 981 1019 
Q 981 738 1244 563 
Q 1509 388 1981 388 
Q 2272 388 2538 444 
Q 2803 503 3025 619 
L 3025 84 
Q 2744 -3 2481 -47 
Q 2216 -91 1966 -91 
Q 1222 -91 819 194 
Q 416 478 416 1019 
Q 416 1356 631 1584 
Q 847 1813 1234 1888 
z
" transform="scale(0.015625)"/>
        <path id="DejaVuSans-3b3" d="M 1128 2950 
L 1894 788 
L 2988 3500 
L 3597 3500 
L 2181 0 
L 2181 -1331 
L 1606 -1331 
L 1606 0 
L 688 2613 
Q 550 3006 253 3006 
L 100 3006 
L 100 3500 
L 319 3500 
Q 934 3500 1128 2950 
z
" transform="scale(0.015625)"/>
       </defs>
       <use xlink:href="#DejaVuSans-39c"/>
       <use xlink:href="#DejaVuSans-3af" transform="translate(86.279297 0)"/>
       <use xlink:href="#DejaVuSans-3c3" transform="translate(120.117188 0)"/>
       <use xlink:href="#DejaVuSans-3b8" transform="translate(183.496094 0)"/>
       <use xlink:href="#DejaVuSans-3c9" transform="translate(244.677734 0)"/>
       <use xlink:href="#DejaVuSans-3c3" transform="translate(328.417969 0)"/>
       <use xlink:href="#DejaVuSans-3b7" transform="translate(391.796875 0)"/>
       <use xlink:href="#DejaVuSans-3c2" transform="translate(455.175781 0)"/>
       <use xlink:href="#DejaVuSans-20" transform="translate(513.867188 0)"/>
       <use xlink:href="#DejaVuSans-3ad" transform="translate(545.654297 0)"/>
       <use xlink:href="#DejaVuSans-3c1" transform="translate(599.707031 0)"/>
       <use xlink:href="#DejaVuSans-3b3" transform="translate(663.183594 0)"/>
       <use xlink:href="#DejaVuSans-3bf" transform="translate(722.363281 0)"/>
       <use xlink:href="#DejaVuSans-3c5" transform="translate(783.544922 0)"/>
      </g>
     </g>
    </g>
    <g id="xtick_3">
     <g id="line2d_3">
      <g>
       <use xlink:href="#m80d7810bd4" x="315.871288" y="291.515804" style="stroke: #000000; stroke-width: 0.8"/>
      </g>
     </g>
     <g id="text_3">
      <!-- Αορ. χρόνου -->
      <g transform="translate(259.344511 331.712952) rotate(-25) scale(0.1 -0.1)">
       <defs>
        <path id="DejaVuSans-391" d="M 2188 4044 
L 1331 1722 
L 3047 1722 
L 2188 4044 
z
M 1831 4666 
L 2547 4666 
L 4325 0 
L 3669 0 
L 3244 1197 
L 1141 1197 
L 716 0 
L 50 0 
L 1831 4666 
z
" transform="scale(0.015625)"/>
       </defs>
       <use xlink:href="#DejaVuSans-391"/>
       <use xlink:href="#DejaVuSans-3bf" transform="translate(68.408203 0)"/>
       <use xlink:href="#DejaVuSans-3c1" transform="translate(129.589844 0)"/>
       <use xlink:href="#DejaVuSans-2e" transform="translate(193.066406 0)"/>
       <use xlink:href="#DejaVuSans-20" transform="translate(224.853516 0)"/>
       <use xlink:href="#DejaVuSans-3c7" transform="translate(256.640625 0)"/>
       <use xlink:href="#DejaVuSans-3c1" transform="translate(314.404297 0)"/>
       <use xlink:href="#DejaVuSans-3cc" transform="translate(377.880859 0)"/>
       <use xlink:href="#DejaVuSans-3bd" transform="translate(439.0625 0)"/>
       <use xlink:href="#DejaVuSans-3bf" transform="translate(494.921875 0)"/>
       <use xlink:href="#DejaVuSans-3c5" transform="translate(556.103516 0)"/>
      </g>
     </g>
    </g>
    <g id="xtick_4">
     <g id="line2d_4">
      <g>
       <use xlink:href="#m80d7810bd4" x="423.113712" y="291.515804" style="stroke: #000000; stroke-width: 0.8"/>
      </g>
     </g>
     <g id="text_4">
      <!-- Μον. προσωπικού -->
      <g transform="translate(343.303887 342.570939) rotate(-25) scale(0.1 -0.1)">
       <defs>
        <path id="DejaVuSans-3c0" d="M 231 3500 
L 3584 3500 
L 3584 2925 
L 3144 2925 
L 3144 775 
Q 3144 550 3220 451 
Q 3297 353 3469 353 
Q 3516 353 3584 361 
Q 3653 369 3675 372 
L 3675 -44 
Q 3566 -84 3450 -103 
Q 3334 -122 3219 -122 
Q 2844 -122 2700 83 
Q 2556 288 2556 838 
L 2556 2925 
L 1266 2925 
L 1266 0 
L 678 0 
L 678 2925 
L 231 2925 
L 231 3500 
z
" transform="scale(0.015625)"/>
        <path id="DejaVuSans-3b9" d="M 1109 3500 
L 1109 1234 
Q 1109 781 1216 638 
Q 1328 488 1666 488 
L 1944 488 
L 1944 0 
L 1597 0 
Q 1034 0 778 300 
Q 522 606 522 1269 
L 519 3500 
L 1109 3500 
z
" transform="scale(0.015625)"/>
        <path id="DejaVuSans-3ba" d="M 597 3500 
L 1191 3500 
L 1191 2047 
L 2700 3500 
L 3400 3500 
L 2022 2181 
L 3616 0 
L 2913 0 
L 1619 1806 
L 1191 1403 
L 1191 0 
L 597 0 
L 597 3500 
z
" transform="scale(0.015625)"/>
        <path id="DejaVuSans-3cd" d="M 2138 5119 
L 2760 5119 
L 1742 3944 
L 1263 3944 
L 2138 5119 
z
M 1056 3500 
L 1056 1234 
Q 1056 813 1213 613 
Q 1384 397 1719 397 
Q 2188 397 2516 1047 
Q 2700 1416 2747 2000 
Q 2772 2319 2678 2719 
Q 2591 3091 2259 3500 
L 2841 3500 
L 2841 3500 
Q 3059 3219 3200 2834 
Q 3331 2475 3331 1994 
Q 3331 1203 2931 619 
Q 2444 -94 1650 -91 
Q 1091 -91 775 284 
Q 469 653 469 1269 
L 466 3500 
L 1056 3500 
z
" transform="scale(0.015625)"/>
       </defs>
       <use xlink:href="#DejaVuSans-39c"/>
       <use xlink:href="#DejaVuSans-3bf" transform="translate(86.279297 0)"/>
       <use xlink:href="#DejaVuSans-3bd" transform="translate(147.460938 0)"/>
       <use xlink:href="#DejaVuSans-2e" transform="translate(203.320312 0)"/>
       <use xlink:href="#DejaVuSans-20" transform="translate(235.107422 0)"/>
       <use xlink:href="#DejaVuSans-3c0" transform="translate(266.894531 0)"/>
       <use xlink:href="#DejaVuSans-3c1" transform="translate(327.099609 0)"/>
       <use xlink:href="#DejaVuSans-3bf" transform="translate(390.576172 0)"/>
       <use xlink:href="#DejaVuSans-3c3" transform="translate(451.757812 0)"/>
       <use xlink:href="#DejaVuSans-3c9" transform="translate(515.136719 0)"/>
       <use xlink:href="#DejaVuSans-3c0" transform="translate(598.876953 0)"/>
       <use xlink:href="#DejaVuSans-3b9" transform="translate(659.082031 0)"/>
       <use xlink:href="#DejaVuSans-3ba" transform="translate(692.919922 0)"/>
       <use xlink:href="#DejaVuSans-3bf" transform="translate(751.855469 0)"/>
       <use xlink:href="#DejaVuSans-3cd" transform="translate(813.037109 0)"/>
      </g>
     </g>
    </g>
    <g id="xtick_5">
     <g id="line2d_5">
      <g>
       <use xlink:href="#m80d7810bd4" x="530.356136" y="291.515804" style="stroke: #000000; stroke-width: 0.8"/>
      </g>
     </g>
     <g id="text_5">
      <!-- Έμμισθη Εντολή -->
      <g transform="translate(455.303011 340.352854) rotate(-25) scale(0.1 -0.1)">
       <defs>
        <path id="DejaVuSans-388" d="M 794 5119 
L 1416 5119 
L 398 3944 
L -81 3944 
L 794 5119 
z
M 1356 4666 
L 4306 4666 
L 4306 4134 
L 1987 4134 
L 1987 2753 
L 4209 2753 
L 4209 2222 
L 1987 2222 
L 1987 531 
L 4362 531 
L 4362 0 
L 1356 0 
L 1356 4666 
z
" transform="scale(0.015625)"/>
        <path id="DejaVuSans-3bc" d="M 544 -1331 
L 544 3500 
L 1119 3500 
L 1119 1325 
Q 1119 872 1334 640 
Q 1550 409 1972 409 
Q 2434 409 2667 671 
Q 2900 934 2900 1459 
L 2900 3500 
L 3475 3500 
L 3475 806 
Q 3475 619 3529 530 
Q 3584 441 3700 441 
Q 3728 441 3778 458 
Q 3828 475 3916 513 
L 3916 50 
Q 3788 -22 3673 -56 
Q 3559 -91 3450 -91 
Q 3234 -91 3106 31 
Q 2978 153 2931 403 
Q 2775 156 2548 32 
Q 2322 -91 2016 -91 
Q 1697 -91 1473 31 
Q 1250 153 1119 397 
L 1119 -1331 
L 544 -1331 
z
" transform="scale(0.015625)"/>
        <path id="DejaVuSans-395" d="M 628 4666 
L 3578 4666 
L 3578 4134 
L 1259 4134 
L 1259 2753 
L 3481 2753 
L 3481 2222 
L 1259 2222 
L 1259 531 
L 3634 531 
L 3634 0 
L 628 0 
L 628 4666 
z
" transform="scale(0.015625)"/>
        <path id="DejaVuSans-3c4" d="M 2319 638 
Q 2431 488 2769 488 
L 3047 488 
L 3047 0 
L 2700 0 
Q 2138 0 1881 300 
Q 1625 606 1625 1269 
L 1625 2925 
L 313 2925 
L 313 3500 
L 3541 3500 
L 3541 2925 
L 2213 2925 
L 2213 1234 
Q 2213 781 2319 638 
z
" transform="scale(0.015625)"/>
        <path id="DejaVuSans-3bb" d="M 1981 4316 
L 3597 0 
L 2988 0 
L 2006 2588 
L 800 0 
L 191 0 
L 1725 3356 
L 1494 3975 
Q 1347 4369 1013 4369 
L 713 4369 
L 713 4863 
L 1078 4856 
Q 1784 4847 1981 4316 
z
" transform="scale(0.015625)"/>
        <path id="DejaVuSans-3ae" d="M 2650 5119 
L 3272 5119 
L 2254 3944 
L 1775 3944 
L 2650 5119 
z
M 3513 2113 
L 3513 -1331 
L 2938 -1331 
L 2938 2094 
Q 2938 2591 2744 2837 
Q 2550 3084 2163 3084 
Q 1697 3084 1428 2787 
Q 1159 2491 1159 1978 
L 1159 0 
L 581 0 
L 581 3500 
L 1159 3500 
L 1159 2956 
Q 1366 3272 1644 3428 
Q 1925 3584 2291 3584 
Q 2894 3584 3203 3213 
Q 3513 2838 3513 2113 
z
" transform="scale(0.015625)"/>
       </defs>
       <use xlink:href="#DejaVuSans-388"/>
       <use xlink:href="#DejaVuSans-3bc" transform="translate(74.609375 0)"/>
       <use xlink:href="#DejaVuSans-3bc" transform="translate(138.232422 0)"/>
       <use xlink:href="#DejaVuSans-3b9" transform="translate(201.855469 0)"/>
       <use xlink:href="#DejaVuSans-3c3" transform="translate(235.693359 0)"/>
       <use xlink:href="#DejaVuSans-3b8" transform="translate(299.072266 0)"/>
       <use xlink:href="#DejaVuSans-3b7" transform="translate(360.253906 0)"/>
       <use xlink:href="#DejaVuSans-20" transform="translate(423.632812 0)"/>
       <use xlink:href="#DejaVuSans-395" transform="translate(455.419922 0)"/>
       <use xlink:href="#DejaVuSans-3bd" transform="translate(518.603516 0)"/>
       <use xlink:href="#DejaVuSans-3c4" transform="translate(574.462891 0)"/>
       <use xlink:href="#DejaVuSans-3bf" transform="translate(634.667969 0)"/>
       <use xlink:href="#DejaVuSans-3bb" transform="translate(695.849609 0)"/>
       <use xlink:href="#DejaVuSans-3ae" transform="translate(755.029297 0)"/>
      </g>
     </g>
    </g>
    <g id="xtick_6">
     <g id="line2d_6">
      <g>
       <use xlink:href="#m80d7810bd4" x="637.598561" y="291.515804" style="stroke: #000000; stroke-width: 0.8"/>
      </g>
     </g>
     <g id="text_6">
      <!-- Άλλο -->
      <g transform="translate(614.170992 315.916938) rotate(-25) scale(0.1 -0.1)">
       <defs>
        <path id="DejaVuSans-386" d="M 1114 5119 
L 1736 5119 
L 718 3944 
L 239 3944 
L 1114 5119 
z
M 2188 4044 
L 1331 1722 
L 3047 1722 
L 2188 4044 
z
M 1831 4666 
L 2547 4666 
L 4325 0 
L 3669 0 
L 3244 1197 
L 1141 1197 
L 716 0 
L 50 0 
L 1831 4666 
z
" transform="scale(0.015625)"/>
       </defs>
       <use xlink:href="#DejaVuSans-386"/>
       <use xlink:href="#DejaVuSans-3bb" transform="translate(69.238281 0)"/>
       <use xlink:href="#DejaVuSans-3bb" transform="translate(128.417969 0)"/>
       <use xlink:href="#DejaVuSans-3bf" transform="translate(187.597656 0)"/>
      </g>
     </g>
    </g>
   </g>
   <g id="matplotlib.axis_2">
    <g id="ytick_1">
     <g id="line2d_7">
      <path d="M 33.2875 291.515804 
L 705.6975 291.515804 
" clip-path="url(#p3955cf648e)" style="fill: none; stroke-dasharray: 2.96,1.28; stroke-dashoffset: 0; stroke: #b0b0b0; stroke-opacity: 0.4; stroke-width: 0.8"/>
     </g>
     <g id="line2d_8">
      <defs>
       <path id="mbd45d8aeba" d="M 0 0 
L -3.5 0 
" style="stroke: #000000; stroke-width: 0.8"/>
      </defs>
      <g>
       <use xlink:href="#mbd45d8aeba" x="33.2875" y="291.515804" style="stroke: #000000; stroke-width: 0.8"/>
      </g>
     </g>
     <g id="text_7">
      <!-- 0 -->
      <g transform="translate(19.925 295.315023) scale(0.1 -0.1)">
       <defs>
        <path id="DejaVuSans-30" d="M 2034 4250 
Q 1547 4250 1301 3770 
Q 1056 3291 1056 2328 
Q 1056 1369 1301 889 
Q 1547 409 2034 409 
Q 2525 409 2770 889 
Q 3016 1369 3016 2328 
Q 3016 3291 2770 3770 
Q 2525 4250 2034 4250 
z
M 2034 4750 
Q 2819 4750 3233 4129 
Q 3647 3509 3647 2328 
Q 3647 1150 3233 529 
Q 2819 -91 2034 -91 
Q 1250 -91 836 529 
Q 422 1150 422 2328 
Q 422 3509 836 4129 
Q 1250 4750 2034 4750 
z
" transform="scale(0.015625)"/>
       </defs>
       <use xlink:href="#DejaVuSans-30"/>
      </g>
     </g>
    </g>
    <g id="ytick_2">
     <g id="line2d_9">
      <path d="M 33.2875 250.502728 
L 705.6975 250.502728 
" clip-path="url(#p3955cf648e)" style="fill: none; stroke-dasharray: 2.96,1.28; stroke-dashoffset: 0; stroke: #b0b0b0; stroke-opacity: 0.4; stroke-width: 0.8"/>
     </g>
     <g id="line2d_10">
      <g>
       <use xlink:href="#mbd45d8aeba" x="33.2875" y="250.502728" style="stroke: #000000; stroke-width: 0.8"/>
      </g>
     </g>
     <g id="text_8">
      <!-- 50 -->
      <g transform="translate(13.5625 254.301946) scale(0.1 -0.1)">
       <defs>
        <path id="DejaVuSans-35" d="M 691 4666 
L 3169 4666 
L 3169 4134 
L 1269 4134 
L 1269 2991 
Q 1406 3038 1543 3061 
Q 1681 3084 1819 3084 
Q 2600 3084 3056 2656 
Q 3513 2228 3513 1497 
Q 3513 744 3044 326 
Q 2575 -91 1722 -91 
Q 1428 -91 1123 -41 
Q 819 9 494 109 
L 494 744 
Q 775 591 1075 516 
Q 1375 441 1709 441 
Q 2250 441 2565 725 
Q 2881 1009 2881 1497 
Q 2881 1984 2565 2268 
Q 2250 2553 1709 2553 
Q 1456 2553 1204 2497 
Q 953 2441 691 2322 
L 691 4666 
z
" transform="scale(0.015625)"/>
       </defs>
       <use xlink:href="#DejaVuSans-35"/>
       <use xlink:href="#DejaVuSans-30" transform="translate(63.623047 0)"/>
      </g>
     </g>
    </g>
    <g id="ytick_3">
     <g id="line2d_11">
      <path d="M 33.2875 209.489651 
L 705.6975 209.489651 
" clip-path="url(#p3955cf648e)" style="fill: none; stroke-dasharray: 2.96,1.28; stroke-dashoffset: 0; stroke: #b0b0b0; stroke-opacity: 0.4; stroke-width: 0.8"/>
     </g>
     <g id="line2d_12">
      <g>
       <use xlink:href="#mbd45d8aeba" x="33.2875" y="209.489651" style="stroke: #000000; stroke-width: 0.8"/>
      </g>
     </g>
     <g id="text_9">
      <!-- 100 -->
      <g transform="translate(7.2 213.288869) scale(0.1 -0.1)">
       <defs>
        <path id="DejaVuSans-31" d="M 794 531 
L 1825 531 
L 1825 4091 
L 703 3866 
L 703 4441 
L 1819 4666 
L 2450 4666 
L 2450 531 
L 3481 531 
L 3481 0 
L 794 0 
L 794 531 
z
" transform="scale(0.015625)"/>
       </defs>
       <use xlink:href="#DejaVuSans-31"/>
       <use xlink:href="#DejaVuSans-30" transform="translate(63.623047 0)"/>
       <use xlink:href="#DejaVuSans-30" transform="translate(127.246094 0)"/>
      </g>
     </g>
    </g>
    <g id="ytick_4">
     <g id="line2d_13">
      <path d="M 33.2875 168.476574 
L 705.6975 168.476574 
" clip-path="url(#p3955cf648e)" style="fill: none; stroke-dasharray: 2.96,1.28; stroke-dashoffset: 0; stroke: #b0b0b0; stroke-opacity: 0.4; stroke-width: 0.8"/>
     </g>
     <g id="line2d_14">
      <g>
       <use xlink:href="#mbd45d8aeba" x="33.2875" y="168.476574" style="stroke: #000000; stroke-width: 0.8"/>
      </g>
     </g>
     <g id="text_10">
      <!-- 150 -->
      <g transform="translate(7.2 172.275793) scale(0.1 -0.1)">
       <use xlink:href="#DejaVuSans-31"/>
       <use xlink:href="#DejaVuSans-35" transform="translate(63.623047 0)"/>
       <use xlink:href="#DejaVuSans-30" transform="translate(127.246094 0)"/>
      </g>
     </g>
    </g>
    <g id="ytick_5">
     <g id="line2d_15">
      <path d="M 33.2875 127.463497 
L 705.6975 127.463497 
" clip-path="url(#p3955cf648e)" style="fill: none; stroke-dasharray: 2.96,1.28; stroke-dashoffset: 0; stroke: #b0b0b0; stroke-opacity: 0.4; stroke-width: 0.8"/>
     </g>
     <g id="line2d_16">
      <g>
       <use xlink:href="#mbd45d8aeba" x="33.2875" y="127.463497" style="stroke: #000000; stroke-width: 0.8"/>
      </g>
     </g>
     <g id="text_11">
      <!-- 200 -->
      <g transform="translate(7.2 131.262716) scale(0.1 -0.1)">
       <defs>
        <path id="DejaVuSans-32" d="M 1228 531 
L 3431 531 
L 3431 0 
L 469 0 
L 469 531 
Q 828 903 1448 1529 
Q 2069 2156 2228 2338 
Q 2531 2678 2651 2914 
Q 2772 3150 2772 3378 
Q 2772 3750 2511 3984 
Q 2250 4219 1831 4219 
Q 1534 4219 1204 4116 
Q 875 4013 500 3803 
L 500 4441 
Q 881 4594 1212 4672 
Q 1544 4750 1819 4750 
Q 2544 4750 2975 4387 
Q 3406 4025 3406 3419 
Q 3406 3131 3298 2873 
Q 3191 2616 2906 2266 
Q 2828 2175 2409 1742 
Q 1991 1309 1228 531 
z
" transform="scale(0.015625)"/>
       </defs>
       <use xlink:href="#DejaVuSans-32"/>
       <use xlink:href="#DejaVuSans-30" transform="translate(63.623047 0)"/>
       <use xlink:href="#DejaVuSans-30" transform="translate(127.246094 0)"/>
      </g>
     </g>
    </g>
    <g id="ytick_6">
     <g id="line2d_17">
      <path d="M 33.2875 86.45042 
L 705.6975 86.45042 
" clip-path="url(#p3955cf648e)" style="fill: none; stroke-dasharray: 2.96,1.28; stroke-dashoffset: 0; stroke: #b0b0b0; stroke-opacity: 0.4; stroke-width: 0.8"/>
     </g>
     <g id="line2d_18">
      <g>
       <use xlink:href="#mbd45d8aeba" x="33.2875" y="86.45042" style="stroke: #000000; stroke-width: 0.8"/>
      </g>
     </g>
     <g id="text_12">
      <!-- 250 -->
      <g transform="translate(7.2 90.249639) scale(0.1 -0.1)">
       <use xlink:href="#DejaVuSans-32"/>
       <use xlink:href="#DejaVuSans-35" transform="translate(63.623047 0)"/>
       <use xlink:href="#DejaVuSans-30" transform="translate(127.246094 0)"/>
      </g>
     </g>
    </g>
    <g id="ytick_7">
     <g id="line2d_19">
      <path d="M 33.2875 45.437343 
L 705.6975 45.437343 
" clip-path="url(#p3955cf648e)" style="fill: none; stroke-dasharray: 2.96,1.28; stroke-dashoffset: 0; stroke: #b0b0b0; stroke-opacity: 0.4; stroke-width: 0.8"/>
     </g>
     <g id="line2d_20">
      <g>
       <use xlink:href="#mbd45d8aeba" x="33.2875" y="45.437343" style="stroke: #000000; stroke-width: 0.8"/>
      </g>
     </g>
     <g id="text_13">
      <!-- 300 -->
      <g transform="translate(7.2 49.236562) scale(0.1 -0.1)">
       <defs>
        <path id="DejaVuSans-33" d="M 2597 2516 
Q 3050 2419 3304 2112 
Q 3559 1806 3559 1356 
Q 3559 666 3084 287 
Q 2609 -91 1734 -91 
Q 1441 -91 1130 -33 
Q 819 25 488 141 
L 488 750 
Q 750 597 1062 519 
Q 1375 441 1716 441 
Q 2309 441 2620 675 
Q 2931 909 2931 1356 
Q 2931 1769 2642 2001 
Q 2353 2234 1838 2234 
L 1294 2234 
L 1294 2753 
L 1863 2753 
Q 2328 2753 2575 2939 
Q 2822 3125 2822 3475 
Q 2822 3834 2567 4026 
Q 2313 4219 1838 4219 
Q 1578 4219 1281 4162 
Q 984 4106 628 3988 
L 628 4550 
Q 988 4650 1302 4700 
Q 1616 4750 1894 4750 
Q 2613 4750 3031 4423 
Q 3450 4097 3450 3541 
Q 3450 3153 3228 2886 
Q 3006 2619 2597 2516 
z
" transform="scale(0.015625)"/>
       </defs>
       <use xlink:href="#DejaVuSans-33"/>
       <use xlink:href="#DejaVuSans-30" transform="translate(63.623047 0)"/>
       <use xlink:href="#DejaVuSans-30" transform="translate(127.246094 0)"/>
      </g>
     </g>
    </g>
   </g>
   <g id="patch_9">
    <path d="M 33.2875 291.515804 
L 33.2875 22.798125 
" style="fill: none; stroke: #000000; stroke-width: 0.8; stroke-linejoin: miter; stroke-linecap: square"/>
   </g>
   <g id="patch_10">
    <path d="M 33.2875 291.515804 
L 705.6975 291.515804 
" style="fill: none; stroke: #000000; stroke-width: 0.8; stroke-linejoin: miter; stroke-linecap: square"/>
   </g>
   <g id="text_14">
    <!-- 312 -->
    <g transform="translate(91.842689 30.514517) scale(0.1 -0.1)">
     <use xlink:href="#DejaVuSans-33"/>
     <use xlink:href="#DejaVuSans-31" transform="translate(63.623047 0)"/>
     <use xlink:href="#DejaVuSans-32" transform="translate(127.246094 0)"/>
    </g>
   </g>
   <g id="text_15">
    <!-- 151 -->
    <g transform="translate(199.085114 162.576625) scale(0.1 -0.1)">
     <use xlink:href="#DejaVuSans-31"/>
     <use xlink:href="#DejaVuSans-35" transform="translate(63.623047 0)"/>
     <use xlink:href="#DejaVuSans-31" transform="translate(127.246094 0)"/>
    </g>
   </g>
   <g id="text_16">
    <!-- 15 -->
    <g transform="translate(309.508788 274.132194) scale(0.1 -0.1)">
     <use xlink:href="#DejaVuSans-31"/>
     <use xlink:href="#DejaVuSans-35" transform="translate(63.623047 0)"/>
    </g>
   </g>
   <g id="text_17">
    <!-- 6 -->
    <g transform="translate(419.932462 281.514548) scale(0.1 -0.1)">
     <defs>
      <path id="DejaVuSans-36" d="M 2113 2584 
Q 1688 2584 1439 2293 
Q 1191 2003 1191 1497 
Q 1191 994 1439 701 
Q 1688 409 2113 409 
Q 2538 409 2786 701 
Q 3034 994 3034 1497 
Q 3034 2003 2786 2293 
Q 2538 2584 2113 2584 
z
M 3366 4563 
L 3366 3988 
Q 3128 4100 2886 4159 
Q 2644 4219 2406 4219 
Q 1781 4219 1451 3797 
Q 1122 3375 1075 2522 
Q 1259 2794 1537 2939 
Q 1816 3084 2150 3084 
Q 2853 3084 3261 2657 
Q 3669 2231 3669 1497 
Q 3669 778 3244 343 
Q 2819 -91 2113 -91 
Q 1303 -91 875 529 
Q 447 1150 447 2328 
Q 447 3434 972 4092 
Q 1497 4750 2381 4750 
Q 2619 4750 2861 4703 
Q 3103 4656 3366 4563 
z
" transform="scale(0.015625)"/>
     </defs>
     <use xlink:href="#DejaVuSans-36"/>
    </g>
   </g>
   <g id="text_18">
    <!-- 2 -->
    <g transform="translate(527.174886 284.795594) scale(0.1 -0.1)">
     <use xlink:href="#DejaVuSans-32"/>
    </g>
   </g>
   <g id="text_19">
    <!-- 19 -->
    <g transform="translate(631.236061 270.851148) scale(0.1 -0.1)">
     <defs>
      <path id="DejaVuSans-39" d="M 703 97 
L 703 672 
Q 941 559 1184 500 
Q 1428 441 1663 441 
Q 2288 441 2617 861 
Q 2947 1281 2994 2138 
Q 2813 1869 2534 1725 
Q 2256 1581 1919 1581 
Q 1219 1581 811 2004 
Q 403 2428 403 3163 
Q 403 3881 828 4315 
Q 1253 4750 1959 4750 
Q 2769 4750 3195 4129 
Q 3622 3509 3622 2328 
Q 3622 1225 3098 567 
Q 2575 -91 1691 -91 
Q 1453 -91 1209 -44 
Q 966 3 703 97 
z
M 1959 2075 
Q 2384 2075 2632 2365 
Q 2881 2656 2881 3163 
Q 2881 3666 2632 3958 
Q 2384 4250 1959 4250 
Q 1534 4250 1286 3958 
Q 1038 3666 1038 3163 
Q 1038 2656 1286 2365 
Q 1534 2075 1959 2075 
z
" transform="scale(0.015625)"/>
     </defs>
     <use xlink:href="#DejaVuSans-31"/>
     <use xlink:href="#DejaVuSans-39" transform="translate(63.623047 0)"/>
    </g>
   </g>
   <g id="text_20">
    <!-- Τύποι Συμβάσεων -->
    <g transform="translate(316.85 16.798125) scale(0.12 -0.12)">
     <defs>
      <path id="DejaVuSans-3a4" d="M -19 4666 
L 3928 4666 
L 3928 4134 
L 2272 4134 
L 2272 0 
L 1638 0 
L 1638 4134 
L -19 4134 
L -19 4666 
z
" transform="scale(0.015625)"/>
      <path id="DejaVuSans-3a3" d="M 1353 531 
L 3634 531 
L 3634 0 
L 628 0 
L 628 531 
L 2125 2481 
L 628 4134 
L 628 4666 
L 3578 4666 
L 3578 4134 
L 1353 4134 
L 2850 2494 
L 1353 531 
z
" transform="scale(0.015625)"/>
      <path id="DejaVuSans-3b2" d="M 1178 216 
L 1178 -1331 
L 600 -1331 
L 600 3478 
Q 600 4903 1931 4903 
Q 3288 4903 3288 3700 
Q 3288 2844 2750 2531 
Q 3625 2250 3625 1416 
Q 3625 -66 2119 -66 
Q 1456 -66 1178 216 
z
M 1178 966 
Q 1525 425 2141 425 
Q 3041 425 3041 1406 
Q 3041 2288 1591 2219 
L 1591 2750 
Q 2725 2750 2725 3750 
Q 2725 4434 1994 4434 
Q 1178 4434 1178 3459 
L 1178 966 
z
" transform="scale(0.015625)"/>
      <path id="DejaVuSans-3ac" d="M 2644 1628 
L 2506 2350 
Q 2366 3091 1809 3091 
Q 1391 3091 1200 2747 
Q 959 2316 959 1747 
Q 959 1059 1194 731 
Q 1431 397 1809 397 
Q 2228 397 2453 1063 
L 2644 1628 
z
M 2966 2584 
L 3275 3500 
L 3788 3500 
L 3147 1603 
L 3272 919 
Q 3300 766 3409 638 
Q 3538 488 3638 488 
L 3913 488 
L 3913 0 
L 3569 0 
Q 3275 0 3013 263 
Q 2884 394 2831 669 
Q 2688 322 2394 50 
Q 2256 -78 1809 -78 
Q 1075 -78 719 397 
Q 353 888 353 1747 
Q 353 2666 750 3097 
Q 1191 3578 1809 3578 
Q 2781 3578 2966 2584 
z
M 2378 5119 
L 3000 5119 
L 1982 3944 
L 1503 3944 
L 2378 5119 
z
" transform="scale(0.015625)"/>
      <path id="DejaVuSans-3b5" d="M 1234 1888 
Q 884 1963 697 2166 
Q 509 2366 509 2656 
Q 509 3097 866 3344 
Q 1219 3588 1831 3588 
Q 2069 3588 2334 3550 
Q 2600 3513 2906 3438 
L 2906 2916 
Q 2603 3006 2353 3047 
Q 2100 3088 1878 3088 
Q 1506 3088 1291 2944 
Q 1072 2800 1072 2600 
Q 1072 2381 1284 2241 
Q 1494 2103 1856 2103 
L 2341 2103 
L 2341 1628 
L 1878 1628 
Q 1450 1628 1225 1469 
Q 981 1294 981 1019 
Q 981 738 1244 563 
Q 1509 388 1981 388 
Q 2272 388 2538 444 
Q 2803 503 3025 619 
L 3025 84 
Q 2744 -3 2481 -47 
Q 2216 -91 1966 -91 
Q 1222 -91 819 194 
Q 416 478 416 1019 
Q 416 1356 631 1584 
Q 847 1813 1234 1888 
z
" transform="scale(0.015625)"/>
     </defs>
     <use xlink:href="#DejaVuSans-3a4"/>
     <use xlink:href="#DejaVuSans-3cd" transform="translate(61.083984 0)"/>
     <use xlink:href="#DejaVuSans-3c0" transform="translate(118.945312 0)"/>
     <use xlink:href="#DejaVuSans-3bf" transform="translate(179.150391 0)"/>
     <use xlink:href="#DejaVuSans-3b9" transform="translate(240.332031 0)"/>
     <use xlink:href="#DejaVuSans-20" transform="translate(274.169922 0)"/>
     <use xlink:href="#DejaVuSans-3a3" transform="translate(305.957031 0)"/>
     <use xlink:href="#DejaVuSans-3c5" transform="translate(369.140625 0)"/>
     <use xlink:href="#DejaVuSans-3bc" transform="translate(427.001953 0)"/>
     <use xlink:href="#DejaVuSans-3b2" transform="translate(490.625 0)"/>
     <use xlink:href="#DejaVuSans-3ac" transform="translate(554.443359 0)"/>
     <use xlink:href="#DejaVuSans-3c3" transform="translate(620.361328 0)"/>
     <use xlink:href="#DejaVuSans-3b5" transform="translate(683.740234 0)"/>
     <use xlink:href="#DejaVuSans-3c9" transform="translate(737.792969 0)"/>
     <use xlink:href="#DejaVuSans-3bd" transform="translate(821.533203 0)"/>
    </g>
   </g>
  </g>
 </g>
 <defs>
  <clipPath id="p3955cf648e">
   <rect x="33.2875" y="22.798125" width="672.41" height="268.717679"/>
  </clipPath>
 </defs>
</svg>
